<?xml version="1.0" encoding="UTF-8" standalone="no"?>
<svg
   viewBox="0 0 128 128"
   version="1.1"
   id="svg1"
   sodipodi:docname="daggers.svg"
   width="128"
   height="128"
   inkscape:version="1.4 (e7c3feb100, 2024-10-09)"
   xmlns:inkscape="http://www.inkscape.org/namespaces/inkscape"
   xmlns:sodipodi="http://sodipodi.sourceforge.net/DTD/sodipodi-0.dtd"
   xmlns="http://www.w3.org/2000/svg"
   xmlns:svg="http://www.w3.org/2000/svg">
  <defs
     id="defs1" />
  <sodipodi:namedview
     id="namedview1"
     pagecolor="#ffffff"
     bordercolor="#000000"
     borderopacity="0.25"
     inkscape:showpageshadow="2"
     inkscape:pageopacity="0.0"
     inkscape:pagecheckerboard="0"
     inkscape:deskcolor="#d1d1d1"
     inkscape:zoom="1.5625"
     inkscape:cx="255.68"
     inkscape:cy="256"
     inkscape:window-width="1920"
     inkscape:window-height="1011"
     inkscape:window-x="0"
     inkscape:window-y="0"
     inkscape:window-maximized="1"
     inkscape:current-layer="svg1" />
  <g
     class=""
     transform="matrix(0.29904276,0,0,0.30111412,-12.552846,-13.564077)"
     id="g1">
    <path
       d="m 265.496,21.607 6.318,111.87 26.352,-39.502 35.848,-72.368 z m 89.373,0 -47.47,95.83 -6.834,19.184 48.793,-30.65 -0.024,-0.03 103.646,-84.333 h -98.11 z m 123.915,0 1.516,1.864 -87.152,70.915 -78.554,70.47 69.467,-19.244 109.727,-42.077 V 21.607 h -15.002 z m -345.55,0.586 c -1.197,0.04 -2.08,0.143 -2.643,0.143 -37.722,0 -66.125,37.65 -66.125,81.605 0,17.037 4.316,32.848 11.64,46.023 -12.274,4.675 -22.294,12.76 -29.855,22.896 -10.174,13.64 -16.37,30.73 -20.426,49.288 -8.11,37.118 -7.623,80.647 -7.623,115.81 v 9.343 h 39.713 l 9.672,146.626 h 122.148 l 7.174,-96.196 c -6.056,-5.153 -11.91,-10.453 -17.555,-15.894 l -6.964,93.402 H 85.085 L 75.413,328.614 H 36.92 c 0.017,-33.33 0.38,-71.425 7.164,-102.476 3.706,-16.962 9.328,-31.62 17.148,-42.104 7.82,-10.484 17.386,-17.03 31.254,-19.18 L 108.412,162.388 98.36,149.79 c -9.08,-11.376 -15.204,-27.674 -15.204,-45.85 0,-36.015 22.562,-62.915 47.436,-62.915 2.79,0 4.426,-0.112 4.617,-0.086 l 0.1,0.013 c 22.578,2.953 42.72,29.22 42.72,62.988 0,18.513 -6.364,34.904 -15.757,46.33 l 26.434,-7.823 c 5.084,-11.485 8.01,-24.554 8.01,-38.506 0,-41.176 -24.445,-77 -58.985,-81.516 l -0.002,-0.002 -1.248,-0.086 h 0.48 c -1.46,-0.156 -2.713,-0.177 -3.728,-0.143 z m 3.726,0.143 c 0.255,0.027 0.503,0.05 0.77,0.086 l -0.044,-0.008 -0.6,-0.078 h -0.125 z m 356.828,101.214 -104.22,39.964 -70.083,37.465 98.082,5.493 76.22,-10.008 V 123.55 Z m -199.172,30.706 -92.94,3.842 -108.179,32.022 c 18.687,86.98 67.757,162.757 146.287,216.802 51.176,-99.324 68.713,-165.12 54.83,-252.666 z m 199.172,61.058 -77.953,10.235 -102.865,33.944 96.708,34.318 84.11,11.043 z m -77.25,98.25 -112.437,0.272 104.63,68.035 0.034,-0.073 85.023,38.396 v -96.49 z m -118.926,55.54 54.347,62.43 75.061,62.266 h 66.767 v -53.1 l -92.715,-41.87 0.055,-0.12 -103.516,-29.606 z m -25.63,39.503 12.563,27.676 44.113,57.518 h 69.092 l -61.703,-51.185 -64.065,-34.008 z m -22.619,19.793 -3.234,65.4 h 58.974 L 268.466,446.03 249.362,428.4 Z"
       fill="#ffffff"
       fill-opacity="1"
       transform="matrix(0.9,0,0,0.9,25.6,25.6)"
       id="path1" />
  </g>
</svg>
