<?xml version="1.0" encoding="UTF-8" standalone="no"?>
<svg
   width="100"
   height="100"
   viewBox="0 0 26.458333 26.458334"
   version="1.1"
   id="svg8"
   inkscape:version="1.2.1 (9c6d41e410, 2022-07-14)"
   sodipodi:docname="drink.svg"
   xml:space="preserve"
   xmlns:inkscape="http://www.inkscape.org/namespaces/inkscape"
   xmlns:sodipodi="http://sodipodi.sourceforge.net/DTD/sodipodi-0.dtd"
   xmlns="http://www.w3.org/2000/svg"
   xmlns:svg="http://www.w3.org/2000/svg"
   xmlns:rdf="http://www.w3.org/1999/02/22-rdf-syntax-ns#"
   xmlns:cc="http://creativecommons.org/ns#"
   xmlns:dc="http://purl.org/dc/elements/1.1/"><defs
     id="defs2" /><sodipodi:namedview
     id="base"
     pagecolor="#ffffff"
     bordercolor="#666666"
     borderopacity="1.0"
     inkscape:pageopacity="0.0"
     inkscape:pageshadow="2"
     inkscape:zoom="3.959798"
     inkscape:cx="67.68022"
     inkscape:cy="63.134534"
     inkscape:document-units="px"
     inkscape:current-layer="layer1"
     inkscape:document-rotation="0"
     showgrid="false"
     units="px"
     showguides="true"
     inkscape:guide-bbox="true"
     inkscape:window-width="1920"
     inkscape:window-height="1009"
     inkscape:window-x="1912"
     inkscape:window-y="-8"
     inkscape:window-maximized="1"
     inkscape:showpageshadow="0"
     inkscape:pagecheckerboard="0"
     inkscape:deskcolor="#d1d1d1"><sodipodi:guide
       position="-2.6458333,13.229167"
       orientation="0,1"
       id="guide1402"
       inkscape:label=""
       inkscape:locked="false"
       inkscape:color="rgb(0,0,255)" /><sodipodi:guide
       position="-2.6458333,25.135417"
       orientation="0,1"
       id="guide1404"
       inkscape:label=""
       inkscape:locked="false"
       inkscape:color="rgb(0,0,255)" /><sodipodi:guide
       position="-2.6458333,1.3229167"
       orientation="0,1"
       id="guide1406"
       inkscape:label=""
       inkscape:locked="false"
       inkscape:color="rgb(0,0,255)" /><sodipodi:guide
       position="1.3229167,29.104167"
       orientation="-1,0"
       id="guide1408"
       inkscape:label=""
       inkscape:locked="false"
       inkscape:color="rgb(0,0,255)" /><sodipodi:guide
       position="13.229167,29.104167"
       orientation="-1,0"
       id="guide1410"
       inkscape:label=""
       inkscape:locked="false"
       inkscape:color="rgb(0,0,255)" /><sodipodi:guide
       position="25.135417,29.104167"
       orientation="-1,0"
       id="guide1412"
       inkscape:label=""
       inkscape:locked="false"
       inkscape:color="rgb(0,0,255)" /></sodipodi:namedview><metadata
     id="metadata5"><rdf:RDF><cc:Work
         rdf:about=""><dc:format>image/svg+xml</dc:format><dc:type
           rdf:resource="http://purl.org/dc/dcmitype/StillImage" /></cc:Work></rdf:RDF></metadata><g
     inkscape:label="Layer 1"
     inkscape:groupmode="layer"
     id="layer1"><path
       style="fill:#000000;stroke-width:0.0517774"
       d="m 4.2729974,25.293341 v -1.164998 h 7.6630786 7.663078 v 1.164998 1.164992 H 11.936076 4.2729974 Z m 0,-6.756678 v -4.04151 l 0.1423884,-0.05258 c 0.8895676,-0.328491 1.6005632,-1.087356 1.8645309,-1.990071 0.050604,-0.173057 0.084288,-0.613198 0.1015963,-1.327576 l 0.025895,-1.06869 0.2107456,-0.03369 C 7.4542244,9.8888453 8.6270189,9.095634 9.2032934,8.2740972 L 9.4139785,7.9737434 h 5.0925885 5.092587 v 0.7193953 0.7193938 l 0.996719,0.023905 c 1.137209,0.027269 1.497247,0.099457 2.245969,0.4503207 1.352427,0.6337678 2.298844,1.7822308 2.72558,3.3074418 0.102707,0.367088 0.11136,0.521875 0.113394,2.028408 0.0019,1.40352 -0.01121,1.692083 -0.09403,2.069006 -0.296613,1.350057 -0.917083,2.491715 -1.850961,3.405746 -0.883572,0.864794 -1.892329,1.411736 -3.204675,1.737556 -0.43652,0.108377 -0.504589,0.109406 -8.349131,0.126264 l -7.9090216,0.017 z m 15.8474796,0.796434 c 0.94812,-0.281465 1.700601,-0.920442 2.127274,-1.806393 0.316005,-0.656161 0.364555,-0.994737 0.345244,-2.407656 l -0.01663,-1.216773 -0.15115,-0.307846 C 22.232717,13.202368 21.900741,12.870393 21.5251,12.694314 21.25124,12.565944 21.171839,12.554878 20.414653,12.539551 l -0.815497,-0.01651 v 3.446771 3.44677 h 0.120047 c 0.06602,0 0.246599,-0.03757 0.401276,-0.08349 z M 3.1245992,12.978217 C 2.8484347,12.901006 2.5718888,12.707142 2.4064191,12.47476 2.1634132,12.133489 2.1501173,11.984649 2.1501173,9.6054938 V 7.3703855 L 1.8030772,7.1405363 C 1.3840888,6.8630327 1.0633893,6.4835412 0.90327237,6.0757688 0.74121816,5.6630627 0.73450922,4.9128673 0.8894012,4.5256657 1.1987311,3.7524375 1.8799954,3.2152407 2.6621823,3.1277716 3.2660585,3.0602422 3.2135262,3.0975535 3.3998741,2.6038179 3.7666622,1.6319968 4.4705761,0.83639811 5.3598251,0.38857914 5.9521857,0.09027124 6.3713212,-9.9999989e-8 7.1640169,-9.9999989e-8 7.9243628,-9.9999989e-8 8.2703183,0.06513544 8.8102346,0.30994525 9.2800237,0.5229572 9.5777002,0.73743927 10.059535,1.21009 c 0.405935,0.3981994 0.433442,0.4157144 0.543663,0.3461867 0.617027,-0.3892196 0.956071,-0.57021881 1.247054,-0.66574163 1.023251,-0.33590946 2.006738,-0.26667868 2.985358,0.21014703 0.597702,0.2912266 1.317835,1.0009766 1.65064,1.6268391 l 0.225156,0.4234208 0.447151,-0.02872 c 0.976561,-0.062723 1.771934,0.361309 2.172322,1.1581137 0.209435,0.4167953 0.268266,0.7447425 0.268266,1.49541 V 6.4204166 H 14.016104 8.433061 L 8.1857078,6.9186832 C 7.857105,7.5806222 7.459178,7.9864159 6.853649,8.2770778 6.3474299,8.5200701 5.9868531,8.5950748 5.3249201,8.5950748 H 4.8425424 v 1.5507782 c 0,0.920561 -0.022858,1.657365 -0.056248,1.813057 -0.1611269,0.751306 -0.9310511,1.223587 -1.6617023,1.019307 z"
       id="path2118" /></g></svg>
