<?xml version="1.0" encoding="UTF-8" standalone="no"?>
<svg
   width="100"
   height="100"
   viewBox="0 0 26.458333 26.458334"
   version="1.1"
   id="svg8"
   inkscape:version="1.2.1 (9c6d41e410, 2022-07-14)"
   sodipodi:docname="food.svg"
   xml:space="preserve"
   xmlns:inkscape="http://www.inkscape.org/namespaces/inkscape"
   xmlns:sodipodi="http://sodipodi.sourceforge.net/DTD/sodipodi-0.dtd"
   xmlns="http://www.w3.org/2000/svg"
   xmlns:svg="http://www.w3.org/2000/svg"
   xmlns:rdf="http://www.w3.org/1999/02/22-rdf-syntax-ns#"
   xmlns:cc="http://creativecommons.org/ns#"
   xmlns:dc="http://purl.org/dc/elements/1.1/"><defs
     id="defs2" /><sodipodi:namedview
     id="base"
     pagecolor="#ffffff"
     bordercolor="#666666"
     borderopacity="1.0"
     inkscape:pageopacity="0.0"
     inkscape:pageshadow="2"
     inkscape:zoom="2.8"
     inkscape:cx="113.92857"
     inkscape:cy="81.071429"
     inkscape:document-units="px"
     inkscape:current-layer="layer1"
     inkscape:document-rotation="0"
     showgrid="false"
     units="px"
     showguides="true"
     inkscape:guide-bbox="true"
     inkscape:window-width="1920"
     inkscape:window-height="1009"
     inkscape:window-x="1912"
     inkscape:window-y="-8"
     inkscape:window-maximized="1"
     inkscape:showpageshadow="0"
     inkscape:pagecheckerboard="0"
     inkscape:deskcolor="#d1d1d1"><sodipodi:guide
       position="-2.6458333,13.229167"
       orientation="0,1"
       id="guide1402"
       inkscape:label=""
       inkscape:locked="false"
       inkscape:color="rgb(0,0,255)" /><sodipodi:guide
       position="-2.6458333,25.135417"
       orientation="0,1"
       id="guide1404"
       inkscape:label=""
       inkscape:locked="false"
       inkscape:color="rgb(0,0,255)" /><sodipodi:guide
       position="-2.6458333,1.3229167"
       orientation="0,1"
       id="guide1406"
       inkscape:label=""
       inkscape:locked="false"
       inkscape:color="rgb(0,0,255)" /><sodipodi:guide
       position="1.3229167,29.104167"
       orientation="-1,0"
       id="guide1408"
       inkscape:label=""
       inkscape:locked="false"
       inkscape:color="rgb(0,0,255)" /><sodipodi:guide
       position="13.229167,29.104167"
       orientation="-1,0"
       id="guide1410"
       inkscape:label=""
       inkscape:locked="false"
       inkscape:color="rgb(0,0,255)" /><sodipodi:guide
       position="25.135417,29.104167"
       orientation="-1,0"
       id="guide1412"
       inkscape:label=""
       inkscape:locked="false"
       inkscape:color="rgb(0,0,255)" /></sodipodi:namedview><metadata
     id="metadata5"><rdf:RDF><cc:Work
         rdf:about=""><dc:format>image/svg+xml</dc:format><dc:type
           rdf:resource="http://purl.org/dc/dcmitype/StillImage" /></cc:Work></rdf:RDF></metadata><g
     inkscape:label="Layer 1"
     inkscape:groupmode="layer"
     id="layer1"><path
       style="fill:#000000;stroke-width:0.0640673"
       d="M 5.7629184,14.984902 C 2.1222413,11.043568 0.38071746,8.2835631 0.04826872,5.9282359 -0.15838143,4.4641537 0.22839314,3.2375714 1.2634534,2.0745169 2.5080861,0.67596418 4.347198,-0.0479684 6.6619844,-0.0505411 8.1071634,-0.05214743 10.430609,0.32304724 10.880255,0.63063604 11.139633,0.80807399 11.248353,1.1776101 11.139728,1.5125207 10.869513,2.3455825 9.9173788,4.2505295 9.1104669,5.572492 8.5550704,6.4824198 8.5050606,6.6295063 8.7282006,6.697067 8.847151,6.7330728 8.9595063,6.6634469 9.5306984,6.1995958 10.488786,5.4216072 12.35757,3.5304224 13.038578,2.6497279 c 0.699902,-0.9051416 0.692833,-0.9024403 1.46143,-0.5593577 1.078295,0.4813311 2.418866,1.3509807 3.410871,2.2126807 0.591873,0.5141173 0.598571,0.5562511 0.253772,1.5942035 -0.549676,1.6546936 -1.404827,3.5064237 -3.024274,6.5487206 -0.313303,0.588597 -0.31983,0.613378 -0.188671,0.717381 0.12454,0.09862 0.162138,0.08842 0.449224,-0.122532 0.172339,-0.126646 1.028349,-0.942308 1.902221,-1.812579 1.656035,-1.6494168 1.989816,-2.0390646 2.841838,-3.3193016 0.5174,-0.7774378 0.81066,-0.8599468 1.306505,-0.3675647 0.945299,0.938642 2.84981,3.7120083 2.892911,4.2125793 0.01379,0.160157 -0.123357,0.617749 -0.421109,1.404921 -0.733206,1.938392 -1.569936,3.660612 -2.465833,5.075348 -0.221674,0.350094 -0.409111,0.662116 -0.416515,0.6934 -0.02098,0.08885 0.140238,0.222811 0.253992,0.211068 0.212681,-0.02196 1.206381,-0.883176 2.546817,-2.207209 1.50391,-1.485417 1.471344,-1.46278 1.862454,-1.302242 0.257743,0.105782 0.315181,0.226761 0.458817,0.96652 0.460059,2.369274 0.38844,4.779084 -0.188643,6.347406 -0.511818,1.390953 -1.563882,2.566646 -2.819499,3.150816 -0.81781,0.380486 -1.603305,0.491998 -2.566418,0.364347 -2.264446,-0.300135 -4.962558,-1.975367 -8.762615,-5.44062 -0.889705,-0.811323 -5.2181722,-5.11828 -6.0628782,-6.03289 z"
       id="path2231" /></g></svg>
