<?xml version="1.0" encoding="UTF-8" standalone="no"?>
<svg
   width="100"
   height="100"
   viewBox="0 0 26.458333 26.458334"
   version="1.1"
   id="svg8"
   inkscape:version="1.2.1 (9c6d41e410, 2022-07-14)"
   sodipodi:docname="poison.svg"
   xml:space="preserve"
   xmlns:inkscape="http://www.inkscape.org/namespaces/inkscape"
   xmlns:sodipodi="http://sodipodi.sourceforge.net/DTD/sodipodi-0.dtd"
   xmlns="http://www.w3.org/2000/svg"
   xmlns:svg="http://www.w3.org/2000/svg"
   xmlns:rdf="http://www.w3.org/1999/02/22-rdf-syntax-ns#"
   xmlns:cc="http://creativecommons.org/ns#"
   xmlns:dc="http://purl.org/dc/elements/1.1/"><defs
     id="defs2" /><sodipodi:namedview
     id="base"
     pagecolor="#ffffff"
     bordercolor="#666666"
     borderopacity="1.0"
     inkscape:pageopacity="0.0"
     inkscape:pageshadow="2"
     inkscape:zoom="1.4"
     inkscape:cx="44.285714"
     inkscape:cy="44.285714"
     inkscape:document-units="px"
     inkscape:current-layer="layer1"
     inkscape:document-rotation="0"
     showgrid="false"
     units="px"
     showguides="true"
     inkscape:guide-bbox="true"
     inkscape:window-width="1920"
     inkscape:window-height="1009"
     inkscape:window-x="1912"
     inkscape:window-y="-8"
     inkscape:window-maximized="1"
     inkscape:showpageshadow="0"
     inkscape:pagecheckerboard="0"
     inkscape:deskcolor="#d1d1d1"><sodipodi:guide
       position="-2.6458333,13.229167"
       orientation="0,1"
       id="guide1402"
       inkscape:label=""
       inkscape:locked="false"
       inkscape:color="rgb(0,0,255)" /><sodipodi:guide
       position="-2.6458333,25.135417"
       orientation="0,1"
       id="guide1404"
       inkscape:label=""
       inkscape:locked="false"
       inkscape:color="rgb(0,0,255)" /><sodipodi:guide
       position="-2.6458333,1.3229167"
       orientation="0,1"
       id="guide1406"
       inkscape:label=""
       inkscape:locked="false"
       inkscape:color="rgb(0,0,255)" /><sodipodi:guide
       position="1.3229167,29.104167"
       orientation="-1,0"
       id="guide1408"
       inkscape:label=""
       inkscape:locked="false"
       inkscape:color="rgb(0,0,255)" /><sodipodi:guide
       position="13.229167,29.104167"
       orientation="-1,0"
       id="guide1410"
       inkscape:label=""
       inkscape:locked="false"
       inkscape:color="rgb(0,0,255)" /><sodipodi:guide
       position="25.135417,29.104167"
       orientation="-1,0"
       id="guide1412"
       inkscape:label=""
       inkscape:locked="false"
       inkscape:color="rgb(0,0,255)" /></sodipodi:namedview><metadata
     id="metadata5"><rdf:RDF><cc:Work
         rdf:about=""><dc:format>image/svg+xml</dc:format><dc:type
           rdf:resource="http://purl.org/dc/dcmitype/StillImage" /></cc:Work></rdf:RDF></metadata><g
     inkscape:label="Layer 1"
     inkscape:groupmode="layer"
     id="layer1"><path
       style="fill:#000000;stroke-width:0.0516764"
       d="m 5.1378444,26.354021 c -0.131103,-0.0649 -0.2530666,-0.179744 -0.3229783,-0.304135 l -0.1123298,-0.199864 2.148e-4,-6.504204 c 2.344e-4,-7.20176 -0.00826,-6.999729 0.3343474,-7.958296 C 5.6109752,9.7818846 6.9742904,8.5031613 8.6041202,8.041827 8.8599189,7.9694214 9.1331584,7.8972836 9.2113193,7.8815203 l 0.1421114,-0.02866 V 7.0528584 6.2528568 H 8.9046575 c -0.343162,0 -0.4990185,-0.024323 -0.6622811,-0.1033576 C 7.996713,6.0305754 7.8031353,5.7345114 7.8031353,5.4777091 c 0,-0.2378061 0.1865812,-0.5380993 0.413621,-0.6657029 0.1944706,-0.1092986 0.2011632,-0.1094449 5.0085887,-0.1094449 4.684587,0 4.819207,0.00273 5.013059,0.1016246 0.136469,0.069622 0.233463,0.1724022 0.308,0.3263748 0.136149,0.2812473 0.136594,0.4121317 0.0023,0.6894624 -0.154758,0.3196843 -0.414882,0.4328337 -0.995064,0.4328337 h -0.448773 v 0.8000016 0.8000015 l 0.14211,0.02885 c 2.064154,0.4190564 3.604602,1.7610095 4.240669,3.6942371 0.270296,0.821519 0.268108,0.758311 0.268108,7.741522 0,6.445641 -7.81e-4,6.489597 -0.106461,6.708072 -0.07729,0.159665 -0.166707,0.249081 -0.326374,0.326374 -0.219105,0.106068 -0.248879,0.106459 -8.097187,0.106418 -7.7963066,-4e-5 -7.8794395,-0.0011 -8.0879226,-0.104312 z M 16.692294,23.210293 c 0.09903,-0.0527 0.232002,-0.18641 0.295484,-0.29714 0.09914,-0.172929 0.115542,-0.277903 0.116272,-0.744232 l 8.59e-4,-0.542906 0.271302,-0.124327 c 0.155225,-0.07113 0.405548,-0.258937 0.585072,-0.438948 0.711108,-0.713034 0.894296,-1.7296 0.471045,-2.613981 -0.114297,-0.238824 -0.114426,-0.242103 -0.02153,-0.546586 0.368442,-1.207597 0.302927,-2.518802 -0.183455,-3.67156 -0.39228,-0.929709 -1.175726,-1.877643 -2.000948,-2.421047 -1.556774,-1.025125 -3.521293,-1.183723 -5.234215,-0.422564 -0.830487,0.369037 -1.7769042,1.175124 -2.2797135,1.941687 -0.8976547,1.36853 -1.1381344,3.022556 -0.6649403,4.573484 0.092899,0.304483 0.09277,0.307762 -0.021527,0.546586 -0.4232491,0.884381 -0.2400617,1.900947 0.4710455,2.613981 0.1772888,0.17777 0.4300037,0.367886 0.5809897,0.437075 l 0.2672192,0.122454 0.017002,0.596456 c 0.014738,0.517034 0.032265,0.617853 0.1316295,0.757153 0.2420153,0.339283 0.1111003,0.327752 3.7360789,0.329052 3.098261,0.0011 3.292359,-0.0042 3.462326,-0.09464 z m -5.788576,-1.924679 c 0,-0.730163 -0.178059,-0.987125 -0.748332,-1.079939 C 9.7852785,20.145438 9.5970452,20.030633 9.4555162,19.778815 9.2985808,19.499586 9.3395623,19.248985 9.6073867,18.85013 9.8643136,18.467504 9.87219,18.327951 9.6661356,17.80924 9.0515046,16.261995 9.387202,14.667435 10.562631,13.550893 c 0.783603,-0.744346 1.571449,-1.062983 2.640692,-1.068 1.120059,-0.0053 1.932989,0.322437 2.7291,1.100102 0.448438,0.438048 0.76227,0.940651 0.964002,1.543855 0.296442,0.886401 0.262529,1.759108 -0.104238,2.68239 -0.205639,0.517665 -0.197978,0.658563 0.05641,1.037408 0.265946,0.396056 0.303581,0.608455 0.160269,0.904499 -0.129998,0.268539 -0.321746,0.392001 -0.70593,0.454528 -0.570273,0.09281 -0.748332,0.349776 -0.748332,1.079939 v 0.470197 h -0.775147 -0.775148 v -0.470197 c 0,-0.755223 -0.219868,-1.05426 -0.775148,-1.05426 -0.55528,0 -0.775148,0.299037 -0.775148,1.05426 v 0.470197 h -0.775147 -0.775148 z m 1.227263,-2.776185 c 0.217444,-0.154834 0.34069,-0.436922 0.30997,-0.709467 -0.04897,-0.434438 -0.41423,-0.730213 -0.842196,-0.681975 -0.995742,0.112235 -0.860475,1.602345 0.138104,1.521367 0.134192,-0.01088 0.306897,-0.06781 0.394122,-0.129925 z m 3.100591,0 c 0.217444,-0.154834 0.34069,-0.436922 0.30997,-0.709467 -0.04897,-0.434438 -0.41423,-0.730213 -0.842196,-0.681975 -0.995742,0.112235 -0.860475,1.602345 0.138104,1.521367 0.134192,-0.01088 0.306897,-0.06781 0.394122,-0.129925 z M 9.5412409,1.9766252 C 9.4374806,1.3300228 9.352774,0.75936272 9.3530039,0.70849174 9.3539023,0.51225276 9.5614059,0.20815325 9.7654713,0.10404684 9.9634968,0.00302168 10.064141,-1.5704483e-6 13.229161,-1.5704483e-6 c 3.165021,0 3.265665,0.00302344045 3.46369,0.1040484104483 0.204066,0.10410641 0.41158,0.40820592 0.412468,0.6044449 2.14e-4,0.050871 -0.08448,0.62153106 -0.188237,1.26813346 L 16.728427,3.1522659 H 13.229161 9.7298956 Z"
       id="path2144" /></g></svg>
