<?xml version="1.0" encoding="UTF-8" standalone="no"?>
<svg
   width="100"
   height="100"
   viewBox="0 0 26.458333 26.458334"
   version="1.1"
   id="svg8"
   inkscape:version="1.2.1 (9c6d41e410, 2022-07-14)"
   sodipodi:docname="potion.svg"
   xml:space="preserve"
   xmlns:inkscape="http://www.inkscape.org/namespaces/inkscape"
   xmlns:sodipodi="http://sodipodi.sourceforge.net/DTD/sodipodi-0.dtd"
   xmlns="http://www.w3.org/2000/svg"
   xmlns:svg="http://www.w3.org/2000/svg"
   xmlns:rdf="http://www.w3.org/1999/02/22-rdf-syntax-ns#"
   xmlns:cc="http://creativecommons.org/ns#"
   xmlns:dc="http://purl.org/dc/elements/1.1/"><defs
     id="defs2" /><sodipodi:namedview
     id="base"
     pagecolor="#ffffff"
     bordercolor="#666666"
     borderopacity="1.0"
     inkscape:pageopacity="0.0"
     inkscape:pageshadow="2"
     inkscape:zoom="5.6"
     inkscape:cx="48.75"
     inkscape:cy="47.857143"
     inkscape:document-units="px"
     inkscape:current-layer="layer1"
     inkscape:document-rotation="0"
     showgrid="false"
     units="px"
     showguides="true"
     inkscape:guide-bbox="true"
     inkscape:window-width="1920"
     inkscape:window-height="1009"
     inkscape:window-x="1912"
     inkscape:window-y="-8"
     inkscape:window-maximized="1"
     inkscape:showpageshadow="0"
     inkscape:pagecheckerboard="0"
     inkscape:deskcolor="#d1d1d1"><sodipodi:guide
       position="-2.6458333,13.229167"
       orientation="0,1"
       id="guide1402"
       inkscape:label=""
       inkscape:locked="false"
       inkscape:color="rgb(0,0,255)" /><sodipodi:guide
       position="-2.6458333,25.135417"
       orientation="0,1"
       id="guide1404"
       inkscape:label=""
       inkscape:locked="false"
       inkscape:color="rgb(0,0,255)" /><sodipodi:guide
       position="-2.6458333,1.3229167"
       orientation="0,1"
       id="guide1406"
       inkscape:label=""
       inkscape:locked="false"
       inkscape:color="rgb(0,0,255)" /><sodipodi:guide
       position="1.3229167,29.104167"
       orientation="-1,0"
       id="guide1408"
       inkscape:label=""
       inkscape:locked="false"
       inkscape:color="rgb(0,0,255)" /><sodipodi:guide
       position="13.229167,29.104167"
       orientation="-1,0"
       id="guide1410"
       inkscape:label=""
       inkscape:locked="false"
       inkscape:color="rgb(0,0,255)" /><sodipodi:guide
       position="25.135417,29.104167"
       orientation="-1,0"
       id="guide1412"
       inkscape:label=""
       inkscape:locked="false"
       inkscape:color="rgb(0,0,255)" /></sodipodi:namedview><metadata
     id="metadata5"><rdf:RDF><cc:Work
         rdf:about=""><dc:format>image/svg+xml</dc:format><dc:type
           rdf:resource="http://purl.org/dc/dcmitype/StillImage" /></cc:Work></rdf:RDF></metadata><g
     inkscape:label="Layer 1"
     inkscape:groupmode="layer"
     id="layer1"><path
       style="fill:#000000;stroke-width:0.0651231"
       d="M 12.485913,26.458333 C 10.062393,26.214761 7.9539337,25.186016 6.3344442,23.456956 5.143158,22.185069 4.3675125,20.685159 3.972772,18.890057 3.7836884,18.030186 3.7687538,16.196477 3.9437885,15.331309 4.464598,12.757032 5.8444822,10.645405 7.9219649,9.2435336 8.4464135,8.8896396 9.1881062,8.4850683 9.6367782,8.3081541 L 9.913551,8.1990208 V 7.0096138 5.8202062 L 9.7262112,5.7372821 C 9.4860128,5.6309592 9.0993547,5.255593 8.9539979,4.9876191 8.8736524,4.8394966 8.8405751,4.6279319 8.8399298,4.2580191 8.8391421,3.8049915 8.8625692,3.6969726 9.0195607,3.4299066 9.2303179,3.0713739 9.5174337,2.8348231 9.9099302,2.6963424 c 0.4172528,-0.1472158 6.2325448,-0.1472158 6.6497978,0 0.624663,0.2203936 1.025901,0.7319908 1.084325,1.3825629 0.06239,0.6946999 -0.236036,1.2903573 -0.794385,1.5856033 l -0.295895,0.1564647 0.01744,1.1922947 0.01745,1.1922952 0.502609,0.2184951 c 2.380727,1.0349579 4.31169,3.1867167 5.117685,5.7028667 0.352546,1.100577 0.433715,1.662214 0.42784,2.960345 -0.0058,1.263227 -0.104097,1.908274 -0.449613,2.947865 -1.043611,3.140034 -3.797679,5.573709 -7.062876,6.241219 -0.724138,0.148038 -2.059618,0.24015 -2.6384,0.181979 z M 9.5291983,0.91169939 C 9.3327826,0.38574193 9.3211835,0.31631033 9.4016892,0.14840893 9.5704942,-0.20364786 9.5413679,-0.2009931 13.234829,-0.2009931 c 3.693462,0 3.664335,-0.002655 3.83314,0.34940203 0.08051,0.1679014 0.06891,0.237333 -0.127509,0.76329046 L 16.724389,1.4902874 h -3.48956 -3.4895606 z"
       id="path1532" /></g></svg>
