<?xml version="1.0" encoding="UTF-8" standalone="no"?>
<svg
   width="100"
   height="100"
   viewBox="0 0 26.458333 26.458334"
   version="1.1"
   id="svg8"
   inkscape:version="1.2.1 (9c6d41e410, 2022-07-14)"
   sodipodi:docname="trinket.svg"
   xml:space="preserve"
   xmlns:inkscape="http://www.inkscape.org/namespaces/inkscape"
   xmlns:sodipodi="http://sodipodi.sourceforge.net/DTD/sodipodi-0.dtd"
   xmlns="http://www.w3.org/2000/svg"
   xmlns:svg="http://www.w3.org/2000/svg"
   xmlns:rdf="http://www.w3.org/1999/02/22-rdf-syntax-ns#"
   xmlns:cc="http://creativecommons.org/ns#"
   xmlns:dc="http://purl.org/dc/elements/1.1/"><defs
     id="defs2" /><sodipodi:namedview
     id="base"
     pagecolor="#ffffff"
     bordercolor="#666666"
     borderopacity="1.0"
     inkscape:pageopacity="0.0"
     inkscape:pageshadow="2"
     inkscape:zoom="3.959798"
     inkscape:cx="92.428958"
     inkscape:cy="71.720831"
     inkscape:document-units="px"
     inkscape:current-layer="layer1"
     inkscape:document-rotation="0"
     showgrid="false"
     units="px"
     showguides="true"
     inkscape:guide-bbox="true"
     inkscape:window-width="1920"
     inkscape:window-height="1009"
     inkscape:window-x="1912"
     inkscape:window-y="-8"
     inkscape:window-maximized="1"
     inkscape:showpageshadow="0"
     inkscape:pagecheckerboard="0"
     inkscape:deskcolor="#d1d1d1"><sodipodi:guide
       position="-2.6458333,13.229167"
       orientation="0,1"
       id="guide1402"
       inkscape:label=""
       inkscape:locked="false"
       inkscape:color="rgb(0,0,255)" /><sodipodi:guide
       position="-2.6458333,25.135417"
       orientation="0,1"
       id="guide1404"
       inkscape:label=""
       inkscape:locked="false"
       inkscape:color="rgb(0,0,255)" /><sodipodi:guide
       position="-2.6458333,1.3229167"
       orientation="0,1"
       id="guide1406"
       inkscape:label=""
       inkscape:locked="false"
       inkscape:color="rgb(0,0,255)" /><sodipodi:guide
       position="1.3229167,29.104167"
       orientation="-1,0"
       id="guide1408"
       inkscape:label=""
       inkscape:locked="false"
       inkscape:color="rgb(0,0,255)" /><sodipodi:guide
       position="13.229167,29.104167"
       orientation="-1,0"
       id="guide1410"
       inkscape:label=""
       inkscape:locked="false"
       inkscape:color="rgb(0,0,255)" /><sodipodi:guide
       position="25.135417,29.104167"
       orientation="-1,0"
       id="guide1412"
       inkscape:label=""
       inkscape:locked="false"
       inkscape:color="rgb(0,0,255)" /></sodipodi:namedview><metadata
     id="metadata5"><rdf:RDF><cc:Work
         rdf:about=""><dc:format>image/svg+xml</dc:format><dc:type
           rdf:resource="http://purl.org/dc/dcmitype/StillImage" /></cc:Work></rdf:RDF></metadata><g
     inkscape:label="Layer 1"
     inkscape:groupmode="layer"
     id="layer1"><path
       style="fill:#000000;stroke-width:0.0516808"
       d="M 6.1954978,23.909514 C 2.9949542,22.625875 0.33422593,21.54074 0.28276815,21.498104 0.23131037,21.455466 0.14689223,21.327557 0.09517219,21.213858 0.00578603,21.017358 0.00107918,20.670617 1.0821685e-7,14.201871 -0.00101563,8.0832027 0.0070615,7.388415 0.08007737,7.3153969 c 0.04466659,-0.044663 0.11733568,-0.081217 0.16148592,-0.081217 0.13544936,0 12.02717071,5.0206851 12.09610871,5.1069771 0.05095,0.06377 0.0646,1.525274 0.0646,6.915011 0,6.143951 -0.0082,6.842347 -0.08122,6.915358 -0.04466,0.04466 -0.131878,0.07911 -0.193803,0.07654 -0.06192,-0.0025 -2.7312171,-1.054921 -5.9317607,-2.33856 z m 7.9417772,2.262017 c -0.07301,-0.07301 -0.08122,-0.771407 -0.08122,-6.915359 0,-5.390285 0.01365,-6.851013 0.0646,-6.913982 0.06865,-0.08484 11.966198,-5.1080057 12.098494,-5.1080057 0.04283,0 0.114433,0.036543 0.1591,0.081217 0.07302,0.073019 0.0811,0.7678059 0.08008,6.8864747 -0.0012,6.566958 -0.0045,6.812814 -0.09904,7.020878 -0.05384,0.118589 -0.156344,0.253912 -0.22778,0.300718 -0.174053,0.114044 -11.714775,4.729276 -11.825897,4.729276 -0.04793,0 -0.123686,-0.03654 -0.168354,-0.08122 z M 7.4201743,8.4266323 C 4.2678641,7.0969032 1.6457059,5.9820919 1.5931561,5.9492741 1.4724347,5.8738827 1.4697051,5.6717681 1.5880477,5.5713761 1.6377907,5.5291843 4.2316963,4.3046147 7.3522829,2.8501196 11.866509,0.74605622 13.068291,0.2055852 13.23263,0.2055852 c 0.164352,0 1.365086,0.54008375 5.876883,2.6433881 3.11868,1.4538639 5.711025,2.6784291 5.760767,2.7212553 0.105689,0.091004 0.118925,0.2839572 0.02482,0.362054 -0.08999,0.074685 -11.605993,4.9204964 -11.68233,4.9157994 -0.03362,-0.0021 -2.640295,-1.0917217 -5.7926052,-2.4214497 z"
       id="path2257" /></g></svg>
