<svg xmlns="http://www.w3.org/2000/svg" version="1.1" xmlns:xlink="http://www.w3.org/1999/xlink" xmlns:svgjs="http://svgjs.com/svgjs" width="512" height="512" x="0" y="0" viewBox="0 0 512 512" style="enable-background:new 0 0 512 512" xml:space="preserve" class=""><g><path xmlns="http://www.w3.org/2000/svg" d="m511.895 16.752c1.05-8.92-5.923-16.752-14.909-16.752h-192.787c-8.284 0-15 6.716-15 15v214.972c0 21.44-10.521 41.52-28.147 53.718-47.091 32.607-129.15 89.418-161.052 111.503-6.115 4.235-13.285 6.473-20.733 6.473h-40.183c-21.527.001-39.084 17.495-39.084 39.117 0 39.269 31.948 71.217 71.217 71.217h150.753c14.077 0 28.165-3.326 40.739-9.618 25.979-12.994 57-12.994 82.978-.001 12.576 6.292 26.664 9.619 40.741 9.619h46.304c43.708 0 79.266-35.559 79.266-79.267 0-30.591-1.33-84.211-31.719-147.24zm-116.747 346.247c-.107.107-.216.213-.327.316-8.274 7.789-17.965 2.806-21.208-.639-5.595-5.944-5.401-15.246.378-20.949 5.627-5.658 8.852-13.476 8.852-21.461 0-8.013-3.248-15.856-8.91-21.519-5.858-5.858-5.862-15.359-.004-21.217 5.857-5.857 15.351-5.862 21.209-.004l.008.008c11.247 11.246 17.697 26.821 17.697 42.731.002 16.145-6.283 31.321-17.695 42.734z" fill="currentColor" data-original="#000000" class=""></path></g></svg>
