<svg xmlns="http://www.w3.org/2000/svg" version="1.1" xmlns:xlink="http://www.w3.org/1999/xlink" xmlns:svgjs="http://svgjs.com/svgjs" width="512" height="512" x="0" y="0" viewBox="0 0 507.536 507.536" style="enable-background:new 0 0 512 512" xml:space="preserve" class=""><g><path xmlns="http://www.w3.org/2000/svg" d="m477.015 160.892c10.108-49.919-25.315-96.857-74.727-102.167-25.831-60.981-109.194-71.181-148.503-16.315-39.309-54.864-122.668-44.68-148.504 16.315-49.442 5.314-84.828 52.282-74.727 102.167-36.829 30.862-40.636 85.864-9.672 121.529-51.3 69.085-2.541 169.778 85.959 169.778 28.26 58.954 108.943 65.945 146.943 12.906 38.031 53.082 118.71 45.991 146.943-12.906 88.708 0 137.101-100.905 85.959-169.778 31.004-35.71 27.112-90.706-9.671-121.529zm-334.25 207.305c-7.91 9.572-12.267 21.698-12.267 34.145 0 8.837-7.163 16-16 16s-16-7.163-16-16c0-19.869 6.961-39.235 19.601-54.529 5.629-6.811 15.714-7.771 22.525-2.141 6.812 5.628 7.771 15.713 2.141 22.525zm39.728-143.149c-28.115 9.19-43.511 39.541-34.32 67.656 2.746 8.399-1.837 17.434-10.236 20.18-8.352 2.731-17.419-1.791-20.18-10.236-3.321-10.159-4.675-20.636-4.147-31-13.293 1.396-25.835 6.288-36.648 14.381-7.074 5.294-17.102 3.853-22.397-3.223-5.295-7.074-3.853-17.102 3.222-22.396 18.521-13.862 40.568-21.189 63.758-21.189.937 0 3.403-8.833 14.2-20.762-16.097-29.984-9.722-68.588 18.013-91.571 6.805-5.637 16.892-4.692 22.529 2.111 5.638 6.805 4.692 16.891-2.111 22.529-14.214 11.777-18.613 31.061-12.237 47.385 3.416-1.64 6.95-3.084 10.612-4.281 8.402-2.75 17.434 1.837 20.18 10.236s-1.839 17.434-10.238 20.18zm87.292 197.71c0 8.837-7.163 16-16 16s-16-7.163-16-16v-338c0-8.837 7.163-16 16-16s16 7.163 16 16zm123.285-4.417c-8.837 0-16-7.163-16-16 0-12.446-4.356-24.572-12.267-34.145-5.63-6.812-4.671-16.896 2.141-22.525 6.812-5.63 16.896-4.67 22.525 2.141 12.64 15.294 19.601 34.66 19.601 54.529 0 8.837-7.163 16-16 16zm60.936-135.534c-5.294 7.074-15.322 8.518-22.397 3.223-10.813-8.093-23.355-12.986-36.648-14.381.528 10.363-.826 20.841-4.147 31-2.758 8.437-11.818 12.971-20.18 10.236-8.399-2.746-12.982-11.78-10.236-20.18 9.19-28.115-6.205-58.466-34.32-67.656-8.399-2.746-12.982-11.78-10.236-20.18s11.777-12.986 20.18-10.236c3.662 1.197 7.197 2.641 10.612 4.281 6.375-16.324 1.977-35.607-12.237-47.385-6.804-5.639-7.749-15.725-2.111-22.529s15.725-7.748 22.529-2.111c27.711 22.963 34.123 61.563 18.013 91.571 5.787 6.394 10.263 13.176 13.889 20.778 21.332-.398 44.688 6.668 64.069 21.174 7.073 5.293 8.515 15.321 3.22 22.395z" fill="currentColor" data-original="#000000" class=""></path></g></svg>
