<svg xmlns="http://www.w3.org/2000/svg" version="1.1" xmlns:xlink="http://www.w3.org/1999/xlink" xmlns:svgjs="http://svgjs.com/svgjs" width="512" height="512" x="0" y="0" viewBox="0 0 310.071 310.071" style="enable-background:new 0 0 512 512" xml:space="preserve" class=""><g>
<path xmlns="http://www.w3.org/2000/svg" d="M289.85,242.064c2.787-8.867-2.143-18.313-11.009-21.099c-39.576-12.437-56.382-83.311-60.322-109.447  c-0.577-3.701-2.488-7.291-2.488-7.291c-7.268-13.829-34.778-20.282-37.874-20.655c-5.561-0.669-6.268-4.922-6.502-6.368  c9.715-6.757,16.275-23.071,16.275-37.805C187.929,17.64,185.632,0,155.987,0c-0.398,0-1.92,0-2.318,0  c-29.646,0-31.942,17.64-31.942,39.399c0,14.734,6.56,31.048,16.274,37.805c-0.234,1.446-1.157,5.771-6.502,6.368  c-3.332,0.374-34.913,7.827-39.159,23.919c0,0-0.522,2.301-0.838,4.092c-0.042,0.241-3.314,24.547-13.105,50.949  c-8.352,22.52-23.314,50.938-47.166,58.433c-8.867,2.786-13.795,12.233-11.009,21.1c2.24,7.126,8.782,11.702,15.866,11.78  c-14.184,8.157-16.26,19.53-16.26,25.424c0,2.342,1.211,9.958,6.745,16.975c4.968,6.308,14.873,13.827,33.832,13.827  c2.845,0,5.853-0.17,8.943-0.502c12.611-1.356,25.328-3.393,37.623-5.362c4.463-0.715,8.922-1.428,13.388-2.112  c5.947-0.914,16.67-1.518,31.864-1.797h5.209c15.194,0.279,25.917,0.884,31.864,1.797c4.466,0.684,8.925,1.397,13.388,2.112  c12.295,1.969,25.012,4.006,37.623,5.362c3.091,0.332,6.099,0.502,8.943,0.502c18.959,0,28.864-7.52,33.832-13.827  c5.534-7.017,6.745-14.633,6.745-16.975c0-5.895-2.076-17.269-16.263-25.426c0.079,0.001,0.158,0.009,0.236,0.009  C280.955,253.852,287.591,249.251,289.85,242.064z M93.235,239.934c-8.536,2.656-10.496,2.935-17.798,3.972  c-2.376,0.335-5.297,0.751-9.166,1.348c-3.789,0.403-7.263,0.944-10.465,1.594c21.947-12.126,39.648-35.243,52.767-68.989  c0.732,6.575,1.185,13.816,1.185,21.778C109.758,225.615,96.6,238.886,93.235,239.934z M243.384,245.254  c-3.869-0.597-6.785-1.056-9.166-1.348c-22.996-2.832-34.321-18.29-34.321-44.268c0-8.303,0.49-15.829,1.278-22.625  c13.199,34.328,31.091,57.781,53.333,69.971C251.126,246.272,247.434,245.685,243.384,245.254z" fill="#000000" data-original="#000000" class=""></path>
</g>
</svg>
