<?xml version="1.0" encoding="UTF-8" standalone="no"?>
<svg
   width="100"
   height="100"
   viewBox="0 0 26.458333 26.458334"
   version="1.1"
   id="svg8"
   inkscape:version="1.2.1 (9c6d41e410, 2022-07-14)"
   sodipodi:docname="ammunition.svg"
   xml:space="preserve"
   xmlns:inkscape="http://www.inkscape.org/namespaces/inkscape"
   xmlns:sodipodi="http://sodipodi.sourceforge.net/DTD/sodipodi-0.dtd"
   xmlns="http://www.w3.org/2000/svg"
   xmlns:svg="http://www.w3.org/2000/svg"
   xmlns:rdf="http://www.w3.org/1999/02/22-rdf-syntax-ns#"
   xmlns:cc="http://creativecommons.org/ns#"
   xmlns:dc="http://purl.org/dc/elements/1.1/"><defs
     id="defs2" /><sodipodi:namedview
     id="base"
     pagecolor="#ffffff"
     bordercolor="#666666"
     borderopacity="1.0"
     inkscape:pageopacity="0.0"
     inkscape:pageshadow="2"
     inkscape:zoom="4"
     inkscape:cx="43.375"
     inkscape:cy="21.5"
     inkscape:document-units="px"
     inkscape:current-layer="layer1"
     inkscape:document-rotation="0"
     showgrid="false"
     units="px"
     showguides="true"
     inkscape:guide-bbox="true"
     inkscape:window-width="1920"
     inkscape:window-height="1009"
     inkscape:window-x="1912"
     inkscape:window-y="-8"
     inkscape:window-maximized="1"
     inkscape:showpageshadow="0"
     inkscape:pagecheckerboard="0"
     inkscape:deskcolor="#d1d1d1"><sodipodi:guide
       position="-2.6458333,13.229167"
       orientation="0,1"
       id="guide1402"
       inkscape:label=""
       inkscape:locked="false"
       inkscape:color="rgb(0,0,255)" /><sodipodi:guide
       position="-2.6458333,25.135417"
       orientation="0,1"
       id="guide1404"
       inkscape:label=""
       inkscape:locked="false"
       inkscape:color="rgb(0,0,255)" /><sodipodi:guide
       position="-2.6458333,1.3229167"
       orientation="0,1"
       id="guide1406"
       inkscape:label=""
       inkscape:locked="false"
       inkscape:color="rgb(0,0,255)" /><sodipodi:guide
       position="1.3229167,29.104167"
       orientation="-1,0"
       id="guide1408"
       inkscape:label=""
       inkscape:locked="false"
       inkscape:color="rgb(0,0,255)" /><sodipodi:guide
       position="13.229167,29.104167"
       orientation="-1,0"
       id="guide1410"
       inkscape:label=""
       inkscape:locked="false"
       inkscape:color="rgb(0,0,255)" /><sodipodi:guide
       position="25.135417,29.104167"
       orientation="-1,0"
       id="guide1412"
       inkscape:label=""
       inkscape:locked="false"
       inkscape:color="rgb(0,0,255)" /></sodipodi:namedview><metadata
     id="metadata5"><rdf:RDF><cc:Work
         rdf:about=""><dc:format>image/svg+xml</dc:format><dc:type
           rdf:resource="http://purl.org/dc/dcmitype/StillImage" /></cc:Work></rdf:RDF></metadata><g
     inkscape:label="Layer 1"
     inkscape:groupmode="layer"
     id="layer1"><path
       style="fill:#000000;stroke-width:0.0647354"
       d="m 14.128745,22.92309 3.544049,-3.544488 v -1.978653 -1.978654 l 4.371737,-1.638831 c 2.404455,-0.901358 4.386642,-1.623928 4.404858,-1.60571 0.01822,0.01822 -0.700052,1.988473 -1.596154,4.378346 L 23.22396,20.900325 H 21.243121 19.26228 l -2.786348,2.783627 -2.78635,2.783626 H 12.13714 10.584697 Z M 0.79195401,25.673555 C 0.391984,25.272447 0.06473566,24.915553 0.06473566,24.880456 c 0,-0.0351 3.96140194,-4.025133 8.80311554,-8.866748 l 8.8031148,-8.802938 0.0171,-1.9754357 0.0171,-1.9754359 4.361221,-1.6376025 c 2.398672,-0.90068127 4.374958,-1.62386574 4.391746,-1.60707651 0.02896,0.02896056 -3.094819,8.41977621 -3.225387,8.66374481 -0.05745,0.1073471 -0.205089,0.1158202 -2.018046,0.1158202 h -1.956065 l -8.803851,8.8040286 c -4.842117,4.842217 -8.8334964,8.80403 -8.8697307,8.80403 -0.036234,0 -0.3931291,-0.328179 -0.79309929,-0.729288 z M 0,14.330438 V 12.777996 L 2.7836269,9.9916468 5.5672539,7.205298 V 5.224458 3.2436188 L 9.9048934,1.6171869 c 2.3857016,-0.89453732 4.3630616,-1.62643154 4.3941336,-1.62643154 0.03107,0 -0.686498,1.98090654 -1.594598,4.40201454 L 11.053337,8.7947844 H 9.0711565 7.088976 L 3.5444878,12.338833 0,15.882882 Z"
       id="path1169" /></g></svg>
