<?xml version="1.0" encoding="UTF-8" standalone="no"?>
<svg
   width="100"
   height="100"
   viewBox="0 0 26.458333 26.458334"
   version="1.1"
   id="svg8"
   inkscape:version="1.2.1 (9c6d41e410, 2022-07-14)"
   sodipodi:docname="attack.svg"
   xml:space="preserve"
   xmlns:inkscape="http://www.inkscape.org/namespaces/inkscape"
   xmlns:sodipodi="http://sodipodi.sourceforge.net/DTD/sodipodi-0.dtd"
   xmlns="http://www.w3.org/2000/svg"
   xmlns:svg="http://www.w3.org/2000/svg"
   xmlns:rdf="http://www.w3.org/1999/02/22-rdf-syntax-ns#"
   xmlns:cc="http://creativecommons.org/ns#"
   xmlns:dc="http://purl.org/dc/elements/1.1/"><defs
     id="defs2" /><sodipodi:namedview
     id="base"
     pagecolor="#ffffff"
     bordercolor="#666666"
     borderopacity="1.0"
     inkscape:pageopacity="0.0"
     inkscape:pageshadow="2"
     inkscape:zoom="5.6"
     inkscape:cx="35.625"
     inkscape:cy="70.357143"
     inkscape:document-units="px"
     inkscape:current-layer="layer1"
     inkscape:document-rotation="0"
     showgrid="false"
     units="px"
     showguides="true"
     inkscape:guide-bbox="true"
     inkscape:window-width="1920"
     inkscape:window-height="1009"
     inkscape:window-x="1912"
     inkscape:window-y="-8"
     inkscape:window-maximized="1"
     inkscape:showpageshadow="0"
     inkscape:pagecheckerboard="0"
     inkscape:deskcolor="#d1d1d1"><sodipodi:guide
       position="-2.6458333,13.229167"
       orientation="0,1"
       id="guide1402"
       inkscape:label=""
       inkscape:locked="false"
       inkscape:color="rgb(0,0,255)" /><sodipodi:guide
       position="-2.6458333,25.135417"
       orientation="0,1"
       id="guide1404"
       inkscape:label=""
       inkscape:locked="false"
       inkscape:color="rgb(0,0,255)" /><sodipodi:guide
       position="-2.6458333,1.3229167"
       orientation="0,1"
       id="guide1406"
       inkscape:label=""
       inkscape:locked="false"
       inkscape:color="rgb(0,0,255)" /><sodipodi:guide
       position="1.3229167,29.104167"
       orientation="-1,0"
       id="guide1408"
       inkscape:label=""
       inkscape:locked="false"
       inkscape:color="rgb(0,0,255)" /><sodipodi:guide
       position="13.229167,29.104167"
       orientation="-1,0"
       id="guide1410"
       inkscape:label=""
       inkscape:locked="false"
       inkscape:color="rgb(0,0,255)" /><sodipodi:guide
       position="25.135417,29.104167"
       orientation="-1,0"
       id="guide1412"
       inkscape:label=""
       inkscape:locked="false"
       inkscape:color="rgb(0,0,255)" /></sodipodi:namedview><metadata
     id="metadata5"><rdf:RDF><cc:Work
         rdf:about=""><dc:format>image/svg+xml</dc:format><dc:type
           rdf:resource="http://purl.org/dc/dcmitype/StillImage" /></cc:Work></rdf:RDF></metadata><g
     inkscape:label="Layer 1"
     inkscape:groupmode="layer"
     id="layer1"><path
       style="fill:#000000;stroke-width:0.0465613"
       d="m 22.715145,24.886186 c -0.06352,-0.03318 -0.14178,-0.112293 -0.173918,-0.17581 -0.133306,-0.263462 -0.111564,-0.294231 0.977335,-1.38313 0.933046,-0.933046 1.052573,-1.037141 1.190896,-1.037141 0.210599,0 0.425959,0.21486 0.425959,0.42497 0,0.136872 -0.105359,0.258297 -1.012709,1.167132 -1.063872,1.065614 -1.159281,1.133666 -1.407563,1.003979 z M 4.4118084,23.452218 C 2.948207,23.283002 1.8015541,22.386086 1.4046544,21.10001 1.3351864,20.874914 1.3200468,20.676066 1.3233324,20.03188 1.3360205,17.54357 2.2113759,15.040674 3.9320804,12.572676 4.2973371,12.04879 5.042529,11.108044 5.3815048,10.742894 l 0.2377294,-0.256087 0.2246584,0.213713 c 0.1235623,0.117542 0.9632378,0.899009 1.8659455,1.736594 0.9027079,0.837584 1.6412811,1.537613 1.6412732,1.555618 -7.5e-6,0.01801 -0.075976,0.242262 -0.1688188,0.49835 -0.7154147,1.97332 -1.1949601,4.00437 -1.4603945,6.185304 -0.1251317,1.028142 -0.2422135,1.376376 -0.6266001,1.863686 -0.1681507,0.213174 -0.623284,0.548267 -0.9134471,0.672526 -0.4854392,0.207884 -1.2036213,0.305108 -1.7700424,0.23962 z m 17.1148956,-0.929516 -0.790591,-0.791619 0.593316,-0.593315 0.593316,-0.593316 0.791764,0.791764 0.791765,0.791765 -0.594489,0.59317 -0.594489,0.59317 z m -2.653786,-0.645629 c -0.07683,-0.04772 -0.191229,-0.14272 -0.254227,-0.211122 l -0.114542,-0.124368 1.50139,-1.499833 1.50139,-1.499832 0.207878,0.218455 c 0.169945,0.178593 0.207878,0.250154 0.207878,0.392162 0,0.165014 -0.06232,0.236391 -1.245516,1.426537 -0.685033,0.689057 -1.302094,1.282592 -1.371247,1.318967 -0.167151,0.08792 -0.265335,0.08317 -0.433004,-0.02097 z m -2.271956,-0.563588 c -0.454459,-0.454458 -0.598313,-0.250389 2.027568,-2.876271 2.625882,-2.625881 2.421813,-2.482027 2.876271,-2.027568 0.244747,0.244746 0.2782,0.300027 0.2782,0.459722 0,0.177467 -0.05073,0.232252 -2.270397,2.45192 -2.219667,2.219668 -2.274452,2.270397 -2.45192,2.270397 -0.159695,0 -0.214976,-0.03345 -0.459722,-0.2782 z M 16.753236,18.60661 C 16.298661,18.265049 15.632005,17.972063 15.075981,17.86948 L 14.771145,17.81324 8.9997272,12.458484 C 5.8254476,9.5133683 3.2047469,7.0582454 3.1759478,7.0026564 3.0806072,6.8186209 1.715067,2.0476043 1.715067,1.8985289 c 0,-0.195021 0.1798232,-0.3747786 0.3749145,-0.3747786 0.080488,0 0.6943038,0.1585864 1.3640355,0.3524142 0.6697318,0.1938278 1.762461,0.5102978 2.4282888,0.7032663 0.6658271,0.1929688 1.2560543,0.3748622 1.3116164,0.4042076 0.055562,0.029345 2.5116516,2.6514776 5.4579768,5.8269608 5.141822,5.5417408 5.358187,5.7820198 5.387679,5.9831308 0.0796,0.542788 0.401538,1.293531 0.758209,1.768078 0.105344,0.140159 0.191534,0.266436 0.191534,0.280617 0,0.01418 -0.146836,0.171493 -0.326302,0.349584 l -0.326302,0.323801 -4.99333,-4.990012 C 9.82032,9.0050722 8.3109076,7.5262534 8.2170996,7.5034123 7.9307787,7.4336974 7.6224192,7.7337071 7.6926766,8.0136356 c 0.016672,0.06643 2.0761322,2.1576174 5.0105374,5.0877294 2.740226,2.736216 4.982265,4.996454 4.98231,5.022749 9.3e-5,0.04698 -0.608513,0.673891 -0.654201,0.673891 -0.01285,0 -0.13799,-0.08613 -0.278087,-0.191395 z M 6.7019933,6.5246916 C 6.8407261,6.3991401 6.8623358,6.1621624 6.7513238,5.9837161 6.6989591,5.899543 6.0718635,5.2492391 5.3577775,4.5385966 4.0690085,3.25604 4.0579939,3.2465197 3.8629256,3.2465197 c -0.2737701,0 -0.4361045,0.1616899 -0.4161008,0.4144491 0.013216,0.1668943 0.1077594,0.2766734 1.2481669,1.4492092 0.678631,0.6977499 1.3176858,1.3303807 1.4201208,1.4058463 0.2067496,0.1523156 0.4245961,0.1555331 0.5868808,0.00867 z M 12.054667,6.9024834 C 11.540851,6.3523905 11.120456,5.8805273 11.120456,5.8538993 c 0,-0.06591 1.650851,-0.8695659 2.397908,-1.1673332 1.975161,-0.7872735 4.790233,-1.5349718 7.077323,-1.8797753 l 0.139684,-0.021059 -0.139684,0.066153 c -0.07683,0.036384 -0.380639,0.1727113 -0.675139,0.3029498 -1.546985,0.6841306 -3.319087,1.74255 -4.795818,2.8643868 -0.723592,0.5496957 -1.561909,1.2916579 -1.855216,1.6419816 -0.111185,0.1327976 -0.219812,0.24145 -0.241395,0.24145 -0.02158,0 -0.459636,-0.4500763 -0.973452,-1.0001696 z"
       id="path2314" /></g></svg>
