<svg xmlns="http://www.w3.org/2000/svg" version="1.1" xmlns:xlink="http://www.w3.org/1999/xlink"
     xmlns:svgjs="http://svgjs.com/svgjs" width="512" height="512" x="0" y="0" viewBox="0 0 48 48"
     style="enable-background:new 0 0 512 512" xml:space="preserve" class=""><g transform="matrix(1.2400000000000002,0,0,1.2400000000000002,-5.7599999999999945,-5.7599999999999945)"><path xmlns="http://www.w3.org/2000/svg" d="m24 5c-10.477 0-19 8.523-19 19s8.523 19 19 19 19-8.523 19-19-8.523-19-19-19zm1.293 3.293c.391-.391 1.023-.391 1.414 0l2 2c.188.187.293.442.293.707v1h3c.552 0 1 .448 1 1s-.448 1-1 1h-3.42l-.502.878c-.616-.276-1.263-.494-1.936-.642l.858-1.501v-1.321l-1.707-1.707c-.391-.391-.391-1.023 0-1.414zm-11.293 3.707h1.586l2.707-2.707c.391-.391 1.023-.391 1.414 0s.391 1.023 0 1.414l-2.293 2.293 2.083 2.083c-.613.311-1.191.679-1.723 1.105l-2.188-2.188h-1.586c-.552 0-1-.448-1-1s.448-1 1-1zm-1 13c0 .552-.448 1-1 1s-1-.448-1-1v-3h-2c-.552 0-1-.448-1-1s.448-1 1-1h3c.227 0 .447.077.625.219l1.687 1.349c-.187.744-.296 1.518-.306 2.316l-1.006-.804zm6.707 12.293c.391.39.391 1.023 0 1.414-.389.39-1.023.391-1.414 0l-2-2c-.187-.187-.293-.442-.293-.707s.105-.52.293-.707l.185-.185-3.078-2.308c-.442-.331-.531-.958-.2-1.4.331-.441.958-.531 1.4-.2l3.306 2.48 1.056-1.056c.612.359 1.261.658 1.947.881l-2.495 2.495zm-3.707-13.293c0-4.411 3.589-8 8-8s8 3.589 8 8-3.589 8-8 8-8-3.589-8-8zm20.707 8.707-2 2c-.187.188-.442.293-.707.293h-3v2c0 .552-.448 1-1 1s-1-.448-1-1v-2.42l-1.892-1.081c.783-.257 1.521-.611 2.205-1.043l.952.544h3.321l1.707-1.707c.391-.391 1.023-.391 1.414 0s.391 1.023 0 1.414zm.586-6-1.707-1.707h-1.637c.033-.329.051-.662.051-1s-.018-.671-.051-1h1.051v-1c0-.197.059-.391.168-.555l2-3c.306-.459.927-.585 1.387-.277.459.306.583.927.277 1.387l-1.832 2.748v1.283l1.707 1.707c.391.39.392 1.024 0 1.414-.39.391-1.023.39-1.414 0zm-9.293-2.707c0 2.206-1.794 4-4 4s-4-1.794-4-4 1.794-4 4-4 4 1.794 4 4z" fill="#000000" data-original="#000000" class=""></path></g></svg>
