<?xml version="1.0" standalone="no"?>
<!DOCTYPE svg PUBLIC "-//W3C//DTD SVG 20010904//EN"
 "http://www.w3.org/TR/2001/REC-SVG-20010904/DTD/svg10.dtd">
<svg version="1.0" xmlns="http://www.w3.org/2000/svg"
 width="512.000000pt" height="512.000000pt" viewBox="0 0 512.000000 512.000000"
 preserveAspectRatio="xMidYMid meet">

<g transform="translate(0.000000,512.000000) scale(0.100000,-0.100000)"
fill="#000000" stroke="none">
<path d="M1183 3223 l-1061 -1888 1064 -3 c585 -1 1543 -1 2128 0 l1064 3
-1061 1888 c-584 1038 -1064 1887 -1067 1887 -3 0 -483 -849 -1067 -1887z
m680 52 c126 -33 223 -108 274 -214 23 -47 28 -72 31 -156 4 -88 1 -110 -21
-172 -37 -106 -107 -204 -232 -323 -173 -165 -285 -279 -285 -290 0 -6 94 -10
270 -10 l270 0 0 -125 0 -125 -480 0 c-434 0 -480 2 -480 16 0 35 33 140 62
198 51 102 127 192 350 411 251 245 263 264 263 392 0 67 -4 86 -21 110 -35
47 -82 68 -149 68 -109 -1 -162 -45 -187 -156 -6 -30 -13 -55 -14 -57 -1 -2
-64 2 -139 9 l-136 13 6 40 c39 253 198 383 470 385 51 1 116 -6 148 -14z
m1141 -23 c169 -79 252 -248 276 -558 17 -227 -14 -479 -76 -610 -82 -173
-219 -253 -417 -241 -76 4 -99 10 -162 41 -168 83 -243 234 -267 543 -8 105
-8 177 0 275 28 328 122 499 311 566 56 19 81 22 167 19 88 -3 109 -8 168 -35z"/>
<path d="M2764 3046 c-74 -33 -100 -108 -116 -324 -13 -176 0 -432 27 -519 30
-101 102 -149 185 -124 48 14 82 56 105 131 23 71 34 515 16 631 -14 89 -50
171 -85 194 -35 23 -95 28 -132 11z"/>
<path d="M975 4459 c-467 -296 -869 -552 -893 -569 -77 -54 -72 20 -70 -1119
l3 -1020 908 1620 c500 892 907 1622 905 1624 -2 1 -385 -240 -853 -536z"/>
<path d="M2670 4996 c0 -4 408 -735 908 -1626 l907 -1619 3 1019 c2 1122 5
1064 -59 1113 -19 14 -410 263 -869 554 -459 291 -847 537 -862 547 -16 10
-28 15 -28 12z"/>
<path d="M4345 1248 c-3 -7 -6 -114 -7 -238 l-3 -225 -235 -5 -235 -5 0 -145
0 -145 235 -5 235 -5 5 -235 5 -235 145 0 145 0 5 235 5 235 235 5 235 5 0
145 0 145 -235 5 -235 5 -5 235 -5 235 -143 3 c-108 2 -144 0 -147 -10z"/>
<path d="M446 1021 c10 -11 1670 -968 1733 -1000 53 -27 91 -26 149 3 68 35
1715 985 1727 997 5 5 -674 9 -1805 9 -1105 0 -1810 -4 -1804 -9z"/>
</g>
</svg>
