<svg xmlns="http://www.w3.org/2000/svg" version="1.1" xmlns:xlink="http://www.w3.org/1999/xlink"
     xmlns:svgjs="http://svgjs.com/svgjs" width="512" height="512" x="0" y="0" viewBox="0 0 512 512"
     style="enable-background:new 0 0 512 512" xml:space="preserve" class=""><g><g xmlns="http://www.w3.org/2000/svg"><path d="m437.976 409.39-174.466 100.6c-4.647 2.68-10.373 2.68-15.02 0l-174.466-100.6z" fill="#000000" data-original="#000000"></path><path
  d="m214.967 11.34-182.967 326.5v-202.34c0-5.359 2.863-10.311 7.51-12.99z" fill="#000000"
  data-original="currentColor"></path><path
  d="m480 135.5v202.34l-182.967-326.5 175.457 111.17c4.647 2.68 7.51 7.631 7.51 12.99z" fill="#000000"
  data-original="currentColor"></path><path
  d="m313.45 253.15v39.99c0 8.28-6.74 15.01-15.02 15.01-8.29 0-15.03-6.73-15.03-15.01v-39.99c0-8.27 6.74-15 15.03-15 8.28 0 15.02 6.73 15.02 15z"
  fill="currentColor" data-original="#000000"></path><path
  d="m256 0-213.34 379.39h426.68zm-18.78 327.94c-12.64.16-21.85.23-28.6.23-17.11 0-18.39-.43-19.74-.88-3.3-1.1-5.77-3.59-6.77-6.85-1.71-5.55.82-8.85 6.35-16.09 4.49-5.87 12.85-16.79 26.85-36.77 4.03-5.76 6.63-10.88 7.74-15.24 1.46-7.36-4.91-14.27-12.32-14.19-6.01 0-11.21 4.26-12.37 10.13-1.06 5.42-6.33 8.96-11.75 7.89-5.43-1.07-8.96-6.32-7.9-11.74 3-15.23 16.46-26.28 32.02-26.28 17.99 0 32.63 14.61 32.63 32.58-.69 10.27-4.73 18.04-11.65 28.32-9.25 13.21-16.09 22.54-21 29.1 7.84-.02 17.32-.09 26.25-.2.05-.01.09-.01.13-.01 5.47 0 9.94 4.4 10.01 9.88.07 5.52-4.35 10.05-9.88 10.12zm61.21.21c-19.33 0-35.05-15.71-35.05-35.01v-39.99c0-19.3 15.72-35 35.05-35s35.05 15.7 35.05 35v39.99c0 19.3-15.72 35.01-35.05 35.01z"
  fill="currentColor" data-original="#000000"></path></g></g></svg>
