<svg xmlns="http://www.w3.org/2000/svg" version="1.1" xmlns:xlink="http://www.w3.org/1999/xlink" xmlns:svgjs="http://svgjs.com/svgjs" width="512" height="512" x="0" y="0" viewBox="0 0 509.792 509.792" style="enable-background:new 0 0 512 512" xml:space="preserve" class=""><g><g xmlns="http://www.w3.org/2000/svg"><path d="m406.932 201.423-123.281 213.529 192.946-30.954z" fill="#000000" data-original="#000000" class=""></path><path d="m317.878 29.906 95.4 117.33 53.91-31.126z" fill="#000000" data-original="#000000" class=""></path><path d="m226.141 414.952-123.28-213.529-69.666 182.575z" fill="#000000" data-original="#000000" class=""></path><path d="m131.615 151.619h246.562l-123.281-151.619z" fill="#000000" data-original="#000000" class=""></path><path d="m126.067 181.619 128.829 223.138 128.829-223.138z" fill="#000000" data-original="#000000" class=""></path><path d="m269.896 447.542v62.25l149.31-86.204z" fill="#000000" data-original="#000000" class=""></path><path d="m428.278 173.216 53.91 141.283v-172.408z" fill="#000000" data-original="#000000" class=""></path><path d="m96.514 147.236 95.4-117.33-149.31 86.204z" fill="#000000" data-original="#000000" class=""></path><path d="m81.514 173.216-53.91-31.125v172.408z" fill="#000000" data-original="#000000" class=""></path><path d="m239.896 447.542-149.31-23.954 149.31 86.204z" fill="currentColor" data-original="#000000" class=""></path></g></g></svg>
