<svg xmlns="http://www.w3.org/2000/svg" version="1.1" xmlns:xlink="http://www.w3.org/1999/xlink" xmlns:svgjs="http://svgjs.com/svgjs" width="512" height="512" x="0" y="0" viewBox="0 0 591.792 591.792" style="enable-background:new 0 0 512 512" xml:space="preserve" class=""><g><g xmlns="http://www.w3.org/2000/svg"><g id="_83_Dice"><path d="m524.642 0h-457.492c-37.042.106-67.044 30.108-67.15 67.15v457.492c.106 37.042 30.108 67.044 67.15 67.15h457.492c37.042-.106 67.044-30.108 67.15-67.15v-457.492c-.106-37.042-30.108-67.044-67.15-67.15zm-403.192 537.444c-37.059.007-67.107-30.03-67.114-67.09-.007-37.059 30.031-67.107 67.09-67.114s67.107 30.03 67.114 67.09v.012c.007 37.053-30.025 67.095-67.078 67.102-.004 0-.008 0-.012 0zm0-174.446c-37.059.007-67.107-30.031-67.114-67.09s30.031-67.107 67.09-67.114 67.107 30.031 67.114 67.09v.012c0 37.055-30.035 67.095-67.09 67.102zm0-174.458c-37.059.007-67.107-30.031-67.114-67.09s30.031-67.107 67.09-67.114 67.107 30.031 67.114 67.09v.024c0 37.053-30.037 67.09-67.09 67.09zm348.892 348.904c-37.059 0-67.102-30.043-67.102-67.102s30.043-67.102 67.102-67.102 67.102 30.043 67.102 67.102c.007 37.053-30.025 67.095-67.078 67.102-.008 0-.016 0-.024 0zm0-174.446c-37.059 0-67.102-30.043-67.102-67.102s30.043-67.102 67.102-67.102 67.102 30.043 67.102 67.102c0 37.06-30.043 67.102-67.102 67.102zm0-174.458c-37.059 0-67.102-30.043-67.102-67.102s30.043-67.102 67.102-67.102 67.102 30.043 67.102 67.102v.012c0 37.053-30.037 67.09-67.09 67.09-.004 0-.008 0-.012 0z" fill="currentColor" data-original="#000000" class=""></path></g></g></g></svg>
