<svg xmlns="http://www.w3.org/2000/svg" version="1.1" xmlns:xlink="http://www.w3.org/1999/xlink"
     xmlns:svgjs="http://svgjs.com/svgjs" width="512" height="512" x="0" y="0" viewBox="0 0 512 512"
     style="enable-background:new 0 0 512 512" xml:space="preserve" class=""><g>
<g xmlns="http://www.w3.org/2000/svg">
	<g>
		<path
      d="M256,150c-24.814,0-45,20.186-45,45c0,16.011,8.628,30.952,22.515,38.994c4.629,2.681,7.485,7.617,7.485,12.979V286    c0,8.276,6.724,15,15,15s15-6.724,15-15v-39.027c0-5.361,2.856-10.298,7.485-12.979C292.372,225.952,301,211.011,301,195    C301,170.186,280.814,150,256,150z"
      fill="#000000" data-original="#000000"></path>
	</g>
</g>
<g xmlns="http://www.w3.org/2000/svg">
	<g>
		<path
      d="M353.793,90.001H158.207c-9.858,14.692-22.515,27.349-37.207,37.207v49.321c0,97.075,51.519,187.254,135,235.697    c83.481-48.442,135-138.622,135-235.697v-49.321C376.308,117.35,363.651,104.693,353.793,90.001z M301,255v31    c0,24.814-20.186,45-45,45c-24.814,0-45-20.186-45-45v-31c-18.691-14.062-30-36.328-30-60c0-41.353,33.647-75,75-75    c41.353,0,75,33.647,75,75C331,218.672,319.691,240.938,301,255z"
      fill="#000000" data-original="#000000"></path>
	</g>
</g>
<g xmlns="http://www.w3.org/2000/svg">
	<g>
		<path
      d="M466,60c-24.814,0-45-20.186-45-45c0-8.291-6.709-15-15-15H106c-8.291,0-15,6.709-15,15c0,24.814-20.186,45-45,45    c-8.291,0-15,6.709-15,15v101.528c0,144.8,86.001,277.23,219.097,334.256C251.972,511.59,253.993,512,256,512    s4.028-0.41,5.903-1.216C394.999,453.758,481,321.328,481,176.528V75C481,66.709,474.291,60,466,60z M421.001,176.528    c0,110.83-60.483,213.417-157.866,266.093c-2.227,1.201-4.673,1.802-7.134,1.802s-4.907-0.601-7.134-1.802    C151.483,389.945,91,287.358,91,176.528v-57.627c0-5.347,2.842-10.298,7.471-12.979c15.923-9.229,29.224-22.529,38.452-38.452    c2.681-4.629,7.632-7.471,12.979-7.471h212.197c5.347,0,10.298,2.842,12.979,7.471c9.229,15.923,22.529,29.224,38.452,38.452    c4.629,2.681,7.471,7.632,7.471,12.979V176.528z"
      fill="#000000" data-original="#000000"></path>
	</g>
</g>
<g xmlns="http://www.w3.org/2000/svg">
</g>
<g xmlns="http://www.w3.org/2000/svg">
</g>
<g xmlns="http://www.w3.org/2000/svg">
</g>
<g xmlns="http://www.w3.org/2000/svg">
</g>
<g xmlns="http://www.w3.org/2000/svg">
</g>
<g xmlns="http://www.w3.org/2000/svg">
</g>
<g xmlns="http://www.w3.org/2000/svg">
</g>
<g xmlns="http://www.w3.org/2000/svg">
</g>
<g xmlns="http://www.w3.org/2000/svg">
</g>
<g xmlns="http://www.w3.org/2000/svg">
</g>
<g xmlns="http://www.w3.org/2000/svg">
</g>
<g xmlns="http://www.w3.org/2000/svg">
</g>
<g xmlns="http://www.w3.org/2000/svg">
</g>
<g xmlns="http://www.w3.org/2000/svg">
</g>
<g xmlns="http://www.w3.org/2000/svg">
</g>
</g></svg>
