<?xml version="1.0" encoding="UTF-8" standalone="no"?>
<svg
   width="100"
   height="100"
   viewBox="0 0 26.458333 26.458334"
   version="1.1"
   id="svg8"
   inkscape:version="1.2.1 (9c6d41e410, 2022-07-14)"
   sodipodi:docname="trinket.svg"
   xml:space="preserve"
   xmlns:inkscape="http://www.inkscape.org/namespaces/inkscape"
   xmlns:sodipodi="http://sodipodi.sourceforge.net/DTD/sodipodi-0.dtd"
   xmlns="http://www.w3.org/2000/svg"
   xmlns:svg="http://www.w3.org/2000/svg"
   xmlns:rdf="http://www.w3.org/1999/02/22-rdf-syntax-ns#"
   xmlns:cc="http://creativecommons.org/ns#"
   xmlns:dc="http://purl.org/dc/elements/1.1/"><defs
     id="defs2" /><sodipodi:namedview
     id="base"
     pagecolor="#ffffff"
     bordercolor="#666666"
     borderopacity="1.0"
     inkscape:pageopacity="0.0"
     inkscape:pageshadow="2"
     inkscape:zoom="5.6"
     inkscape:cx="28.839286"
     inkscape:cy="44.642857"
     inkscape:document-units="px"
     inkscape:current-layer="layer1"
     inkscape:document-rotation="0"
     showgrid="false"
     units="px"
     showguides="true"
     inkscape:guide-bbox="true"
     inkscape:window-width="1920"
     inkscape:window-height="1009"
     inkscape:window-x="1912"
     inkscape:window-y="-8"
     inkscape:window-maximized="1"
     inkscape:showpageshadow="0"
     inkscape:pagecheckerboard="0"
     inkscape:deskcolor="#d1d1d1"><sodipodi:guide
       position="-2.6458333,13.229167"
       orientation="0,1"
       id="guide1402"
       inkscape:label=""
       inkscape:locked="false"
       inkscape:color="rgb(0,0,255)" /><sodipodi:guide
       position="-2.6458333,25.135417"
       orientation="0,1"
       id="guide1404"
       inkscape:label=""
       inkscape:locked="false"
       inkscape:color="rgb(0,0,255)" /><sodipodi:guide
       position="-2.6458333,1.3229167"
       orientation="0,1"
       id="guide1406"
       inkscape:label=""
       inkscape:locked="false"
       inkscape:color="rgb(0,0,255)" /><sodipodi:guide
       position="1.3229167,29.104167"
       orientation="-1,0"
       id="guide1408"
       inkscape:label=""
       inkscape:locked="false"
       inkscape:color="rgb(0,0,255)" /><sodipodi:guide
       position="13.229167,29.104167"
       orientation="-1,0"
       id="guide1410"
       inkscape:label=""
       inkscape:locked="false"
       inkscape:color="rgb(0,0,255)" /><sodipodi:guide
       position="25.135417,29.104167"
       orientation="-1,0"
       id="guide1412"
       inkscape:label=""
       inkscape:locked="false"
       inkscape:color="rgb(0,0,255)" /></sodipodi:namedview><metadata
     id="metadata5"><rdf:RDF><cc:Work
         rdf:about=""><dc:format>image/svg+xml</dc:format><dc:type
           rdf:resource="http://purl.org/dc/dcmitype/StillImage" /></cc:Work></rdf:RDF></metadata><g
     inkscape:label="Layer 1"
     inkscape:groupmode="layer"
     id="layer1"><path
       style="fill:#000000;stroke-width:0.0589311"
       d="m 26.090473,14.875672 c -0.0098,0.113644 -0.0676,0.539093 -0.128496,0.945444 -0.583577,3.894218 -3.100901,7.315435 -6.745837,9.168058 -3.577936,1.81857 -7.626962,1.904444 -11.1300172,0.236052 C 7.5356451,24.963051 6.1975375,24.144225 5.8476513,23.855441 L 5.7034791,23.736447 5.8759096,23.543975 c 0.094837,-0.105859 0.4365892,-0.497759 0.7594486,-0.87089 0.5295118,-0.611957 0.5866064,-0.700652 0.5828127,-0.905377 -0.00621,-0.334965 -0.3176267,-0.547342 -0.621856,-0.424084 -0.05086,0.02061 -0.4354293,0.429657 -0.8545978,0.909005 L 4.9795915,23.124168 4.4708992,22.610288 C 2.6542943,20.775158 1.439001,18.361675 1.0031911,15.723676 0.77453938,14.339625 0.82521958,12.475388 1.1290024,11.095791 c 0.1222961,-0.555394 0.2666619,-0.772523 0.5167208,-0.777157 0.087777,-0.0016 1.2251249,0.441461 2.5274383,0.98464 1.3023144,0.543178 2.3986757,0.987024 2.4363593,0.986326 0.037685,-6.99e-4 0.5563779,-0.275547 1.1526535,-0.610773 0.628671,-0.353439 1.152381,-0.610559 1.2465759,-0.612015 0.089341,-0.0014 0.8007472,0.2244 1.5809028,0.501739 0.780154,0.277338 1.427469,0.494903 1.438477,0.48348 0.01101,-0.01143 0.06085,-0.682321 0.110736,-1.490883 0.0499,-0.8085638 0.118079,-1.5412858 0.151516,-1.6282733 0.03344,-0.086984 0.130939,-0.1862769 0.216671,-0.2206432 0.08573,-0.034364 0.933621,-0.1568226 1.8842,-0.2721242 0.950578,-0.1153016 1.746633,-0.2314985 1.769007,-0.2582136 0.02237,-0.026719 0.501174,-1.3037153 1.063997,-2.8377793 1.049412,-2.860332 1.142204,-3.0577211 1.43914,-3.0613192 0.160992,-0.00198 0.840681,0.3490992 1.601338,0.8270712 0.564455,0.354683 0.577936,0.3682665 0.525849,0.5298163 -0.02941,0.091191 -0.437989,1.5071225 -0.907969,3.1465165 -0.74552,2.600525 -0.846321,3.0028826 -0.790289,3.1545165 0.14436,0.3906693 0.717655,0.3884603 0.863117,-0.00333 0.03379,-0.091022 0.202305,-0.6587763 0.374475,-1.2616957 0.17217,-0.6029184 0.325813,-1.1185435 0.341431,-1.1458315 0.01562,-0.027294 0.245748,0.3265169 0.5114,0.786232 0.265653,0.459716 0.534386,0.8857312 0.597186,0.9467021 0.171193,0.1662067 0.464085,0.1386265 0.62791,-0.059134 0.230678,-0.2784543 0.230015,-0.2801834 -0.76107,-1.9808329 -0.313686,-0.5382716 -0.571013,-1.0150538 -0.571837,-1.0595182 -0.0016,-0.085325 0.539443,-1.9976644 0.575854,-2.0354505 0.01168,-0.012118 0.28759,0.2331027 0.613146,0.5449315 1.997188,1.9129724 3.316151,4.4716685 3.720028,7.2165935 0.119601,0.81286 0.130353,1.040774 0.0492,1.042278 -0.03261,6.05e-4 -0.295714,-0.08735 -0.584643,-0.19546 -0.620309,-0.232099 -0.720173,-0.237587 -0.929074,-0.05106 -0.193207,0.17252 -0.208183,0.464412 -0.03251,0.633688 0.06507,0.0627 0.450675,0.236334 0.856887,0.385834 l 0.738568,0.271819 0.01302,0.346275 c 0.0071,0.190451 0.0049,0.439257 -0.0048,0.552899 z m -5.564087,-1.307208 c -0.08664,-0.06559 -0.231275,-0.117875 -0.32143,-0.116204 -0.159978,0.003 -0.403857,0.248899 -1.457773,1.470057 l -0.205889,0.238561 -1.492398,-0.30584 c -1.023076,-0.20966 -1.53137,-0.289602 -1.616328,-0.25421 -0.06815,0.0284 -1.002136,0.967067 -2.075502,2.085935 -1.756985,1.831468 -1.951221,2.053302 -1.948043,2.224818 0.0047,0.255889 0.233154,0.475063 0.492342,0.472427 0.177357,-0.0018 0.352084,-0.167337 2.014528,-1.908547 1.001179,-1.048615 1.847373,-1.902532 1.88043,-1.897591 0.03306,0.005 0.505022,0.09948 1.048811,0.210109 l 0.988708,0.201128 -0.400709,0.471312 c -0.220387,0.259222 -0.416049,0.537631 -0.434804,0.618686 -0.07008,0.302871 0.3169,0.627079 0.612863,0.513451 0.08375,-0.03215 0.795751,-0.810429 1.61424,-1.76449 1.347049,-1.570168 1.464169,-1.724332 1.461436,-1.923662 -0.0022,-0.164653 -0.0408,-0.245337 -0.160482,-0.33594 z m -1.663041,7.551816 -0.162726,-0.1164 -1.279529,0.213954 c -1.451965,0.242786 -1.635735,0.292535 -1.724972,0.466969 -0.06733,0.131618 -0.198957,1.368169 -0.192863,1.811873 0.0042,0.314283 0.179883,0.530938 0.426542,0.526367 0.382425,-0.0071 0.488939,-0.179396 0.534431,-0.864553 0.05743,-0.864895 0.04427,-0.83519 0.39067,-0.882638 1.048505,-0.143623 1.933781,-0.333917 2.069574,-0.444865 0.205508,-0.167909 0.173242,-0.543064 -0.06113,-0.710707 z M 7.8393848,16.930287 C 7.4845819,16.253009 7.1873648,15.754069 7.1245884,15.730354 7.0654865,15.708025 6.2632121,15.482383 5.3417566,15.228921 3.8990617,14.832082 3.6420611,14.777067 3.4912547,14.832793 c -0.2020096,0.07465 -0.2878032,0.211482 -0.2833477,0.45192 0.00554,0.298864 0.1649378,0.384517 1.2869769,0.691563 0.5826666,0.159446 1.2879793,0.35289 1.5673616,0.429873 l 0.5079668,0.13997 0.5149804,0.990279 c 0.283239,0.544654 0.5635024,1.032749 0.6228078,1.084656 0.059305,0.05191 0.2027259,0.09262 0.3187127,0.09047 0.2518025,-0.0047 0.4279681,-0.192457 0.4231753,-0.451099 -0.00183,-0.09851 -0.2602244,-0.661495 -0.6105037,-1.330138 z M 13.919135,5.0517118 c -0.717174,1.6562628 -1.185433,2.6639894 -1.277702,2.7497156 -0.0801,0.074427 -0.208975,0.1364902 -0.286376,0.1379245 -0.26761,0.00496 -0.421724,-0.2324444 -0.999133,-1.5391097 l -0.56646,-1.281891 0.494053,-2.4006026 c 0.43763,-2.12645417 0.510635,-2.41605347 0.639275,-2.53591143 0.292095,-0.2721505 0.308387,-0.26346886 2.00431,1.06801043 0.912163,0.7161419 1.12223,0.9248997 1.123587,1.1165724 2.76e-4,0.038992 -0.508925,1.2473732 -1.131554,2.6852918 z M 11.120674,8.32986 C 11.074174,8.419457 10.970515,8.5105391 10.890292,8.5322611 10.668216,8.592396 8.1648152,8.0400689 7.8921413,7.8707808 7.3408375,7.5285054 3.0230327,4.4955319 2.9024252,4.3658332 2.6036874,4.0445769 2.6730186,3.9478698 4.8802271,1.6070699 6.1828292,0.22562684 6.239344,0.18675809 6.5506404,0.45821114 6.671065,0.56322 10.748423,7.1571976 11.10706,7.8269329 c 0.121037,0.2260303 0.122835,0.2924234 0.01362,0.502927 z M 9.8700674,1.6062385 C 9.8349004,1.6985459 9.5436557,1.8615479 9.4094496,1.8640349 9.3555088,1.8650344 9.098534,1.6662684 8.8383949,1.4223353 8.4134788,1.0238885 8.3649975,0.95634014 8.3613152,0.75762826 8.3581877,0.58885124 8.3934679,0.5068175 8.5102025,0.41144233 8.7808057,0.19034778 8.9195845,0.23873286 9.4325201,0.73300429 9.8124154,1.0990766 9.9014364,1.2180177 9.9002614,1.3579565 c -8.39e-4,0.095052 -0.01438,0.2067839 -0.03019,0.248282 z M 8.1861946,10.164146 C 8.0344779,10.306649 7.8277043,10.34817 6.3583761,10.531182 L 5.0908424,10.689056 3.3692242,9.850528 C 2.4223342,9.3893393 1.5988515,8.9575043 1.5392628,8.8908959 1.4680549,8.8113015 1.4356417,8.6974315 1.4446945,8.558679 1.4575317,8.3619444 1.5331131,8.2852749 2.5546134,7.4327947 3.1574926,6.9296705 3.7137198,6.5009744 3.7906733,6.4801381 c 0.076954,-0.020829 0.1996076,-0.0078 0.2725605,0.028825 0.2619521,0.1317443 4.1534858,3.0391089 4.190647,3.1308312 0.073624,0.1817201 0.04279,0.4205857 -0.067686,0.5243517 z M 1.8806932,5.4575317 C 1.7962276,5.6618197 1.6960722,5.7202744 1.4217968,5.7253569 1.2699499,5.7281707 1.1594,5.6524059 0.79983488,5.2991201 0.43004453,4.935785 0.36197114,4.8385516 0.35883318,4.6692126 c -0.004793,-0.2586486 0.193297,-0.4602163 0.4570775,-0.4651043 0.1562761,-0.0029 0.26678952,0.064838 0.58342612,0.357573 0.3213709,0.2971128 0.5694442,0.6048374 0.5594736,0.6940014 -0.00109,0.00972 -0.036242,0.1005688 -0.078117,0.201849 z"
       id="path2283" /></g></svg>
