<?xml version="1.0" encoding="UTF-8" standalone="no"?>
<svg
   version="1.1"
   x="0px"
   y="0px"
   viewBox="0 0 461 461"
   xml:space="preserve"
   id="svg12"
   sodipodi:docname="star-circle.svg"
   width="461"
   height="461"
   inkscape:version="1.2.1 (9c6d41e410, 2022-07-14)"
   xmlns:inkscape="http://www.inkscape.org/namespaces/inkscape"
   xmlns:sodipodi="http://sodipodi.sourceforge.net/DTD/sodipodi-0.dtd"
   xmlns="http://www.w3.org/2000/svg"
   xmlns:svg="http://www.w3.org/2000/svg"><defs
     id="defs16" /><sodipodi:namedview
     id="namedview14"
     pagecolor="#505050"
     bordercolor="#eeeeee"
     borderopacity="1"
     inkscape:showpageshadow="0"
     inkscape:pageopacity="0"
     inkscape:pagecheckerboard="0"
     inkscape:deskcolor="#505050"
     showgrid="false"
     inkscape:zoom="0.64765625"
     inkscape:cx="189.91556"
     inkscape:cy="176.0193"
     inkscape:window-width="1920"
     inkscape:window-height="1009"
     inkscape:window-x="1912"
     inkscape:window-y="-8"
     inkscape:window-maximized="1"
     inkscape:current-layer="svg12" /><g
     id="g6"
     transform="translate(-25.5,-25.5)"><path
       d="M 418.98999,93.01001 C 375.44995,49.479981 317.57007,25.5 256,25.5 194.42993,25.5 136.55005,49.479981 93.01001,93.01001 49.479981,136.55005 25.5,194.42993 25.5,256 25.5,317.57007 49.47998,375.44995 93.01001,418.98999 136.55005,462.52002 194.42993,486.5 256,486.5 c 61.57007,0 119.44995,-23.97998 162.98999,-67.51001 C 462.52002,375.44995 486.5,317.57007 486.5,256 486.5,194.42993 462.52002,136.55005 418.98999,93.01001 Z M 256,394.39014 c -76.31006,0 -138.39001,-62.08008 -138.39001,-138.39014 0,-76.31006 62.07995,-138.39014 138.39001,-138.39014 76.31006,0 138.39001,62.08008 138.39001,138.39014 0,76.31006 -62.07995,138.39014 -138.39001,138.39014 z"
       id="path2" /><polygon
       points="304.80005,279.5 353.60999,231.92993 286.15991,222.12988 256,161.01001 225.84009,222.12988 158.39001,231.92993 207.19995,279.5 195.66992,346.66992 256,314.95996 316.33008,346.66992 "
       id="polygon4" /></g></svg>
