<svg xmlns="http://www.w3.org/2000/svg" version="1.1" xmlns:xlink="http://www.w3.org/1999/xlink"
     xmlns:svgjs="http://svgjs.com/svgjs" width="512" height="512" x="0" y="0" viewBox="0 0 512 512"
     style="enable-background:new 0 0 512 512" xml:space="preserve" class=""><g><path xmlns="http://www.w3.org/2000/svg" d="m336.333 512h-160.666c-8.284 0-15-6.716-15-15v-145.667h-145.667c-8.284 0-15-6.716-15-15v-160.666c0-8.284 6.716-15 15-15h145.667v-145.667c0-8.284 6.716-15 15-15h160.666c8.284 0 15 6.716 15 15v145.667h145.667c8.284 0 15 6.716 15 15v160.666c0 8.284-6.716 15-15 15h-145.667v145.667c0 8.284-6.716 15-15 15z" fill="#000000" data-original="#000000" class=""></path></g></svg>
