<svg xmlns="http://www.w3.org/2000/svg" version="1.1" xmlns:xlink="http://www.w3.org/1999/xlink"
     xmlns:svgjs="http://svgjs.com/svgjs" width="512" height="512" x="0" y="0" viewBox="0 0 511.551 511.551"
     style="enable-background:new 0 0 512 512" xml:space="preserve" class=""><g><g xmlns="http://www.w3.org/2000/svg"><path d="m449.061 271.236h-3.855v-30h3.855c64.057-2.659 64.008-93.912 0-96.547h-13.871v-30h13.871c1.072 0 2.139.022 3.201.065 5.25-36.309-25.23-69.535-61.886-67.296l-11.532.575-3.507-11c-19.447-57.762-103.482-44.609-104.562 16.281v98.148c13.304-8.884 28.93-13.655 45.291-13.655 72.287-.301 109.082 88.603 57.832 139.612l-103.123 103.12v77.697c1.095 60.932 85.139 74.009 104.562 16.281l3.507-11 11.532.575c36.315 2.19 66.619-30.327 62.002-66.379-1.1.046-2.206.07-3.318.07h-13.87v-30h13.871c64.057-2.659 64.007-93.911 0-96.547z" fill="#000000" data-original="#000000"></path><path
  d="m352.683 182.975c-19.275-20.089-53.959-20.088-73.233 0l-23.691 23.69-23.691-23.69c-19.276-20.089-53.959-20.088-73.234 0-20.19 20.19-20.19 53.042-.001 73.232l96.922 96.928 96.93-96.928c20.188-20.19 20.188-53.042-.002-73.232z"
  fill="#000000" data-original="#000000"></path><path
  d="m195.45 137.808c16.374 0 32.013 4.779 45.325 13.679v-98.173c-1.095-60.932-85.139-74.009-104.562-16.281l-3.507 11-11.532-.575c-36.656-2.24-67.137 30.99-61.886 67.296 1.062-.043 2.129-.065 3.201-.065h13.871v30h-13.87c-64.057 2.659-64.008 93.912 0 96.547h3.855v30h-3.855c-64.057 2.659-64.008 93.912 0 96.547h13.871v30h-13.871c-1.111 0-2.217-.024-3.318-.07-4.615 36.055 25.687 68.568 62.002 66.379l11.532-.575 3.507 11c19.447 57.762 103.482 44.61 104.562-16.281v-77.654l-103.157-103.162c-31.886-31.888-31.885-83.771.002-115.658 15.447-15.448 35.985-23.954 57.83-23.954z"
  fill="#000000" data-original="#000000"></path></g></g></svg>
