<svg xmlns="http://www.w3.org/2000/svg" version="1.1" xmlns:xlink="http://www.w3.org/1999/xlink" xmlns:svgjs="http://svgjs.com/svgjs" width="512" height="512" x="0" y="0" viewBox="0 0 512 512" style="enable-background:new 0 0 512 512" xml:space="preserve" class=""><g><g xmlns="http://www.w3.org/2000/svg"><path d="m512 44.7-45.41-44.7-53.52 53.86c-43.36-33.76-97.87-53.86-157.07-53.86-141.38 0-256 114.62-256 256 0 59.2 20.1 113.71 53.86 157.07l-53.86 53.91 45.02 45.02 53.91-53.86c43.36 33.76 97.87 53.86 157.07 53.86 141.38 0 256-114.62 256-256 0-59.2-20.1-113.71-53.86-157.07zm-443.76 211.3c0-103.7 84.06-187.76 187.76-187.76 40.34 0 77.71 12.71 108.32 34.37l-261.71 261.71c-21.66-30.61-34.37-67.98-34.37-108.32zm187.76 187.76c-40.34 0-77.71-12.71-108.32-34.37l261.71-261.71c21.66 30.61 34.37 67.98 34.37 108.32 0 103.7-84.06 187.76-187.76 187.76z" fill="currentColor" data-original="#000000" class=""></path></g></g></svg>
