<svg xmlns="http://www.w3.org/2000/svg" version="1.1" xmlns:xlink="http://www.w3.org/1999/xlink"
     xmlns:svgjs="http://svgjs.com/svgjs" width="512" height="512" x="0" y="0" viewBox="0 0 512 512"
     style="enable-background:new 0 0 512 512" xml:space="preserve" class=""><g><path xmlns="http://www.w3.org/2000/svg" d="m80 256c0 28.808 6.957 56.021 19.279 80.048l40.472-72.423-45.98-75.867c-8.865 20.996-13.771 44.056-13.771 68.242z" fill="#000000" data-original="#000000"></path><path
  xmlns="http://www.w3.org/2000/svg" d="m327.753 184 35.52 63.563 38.524-63.563z" fill="#000000"
  data-original="#000000"></path><path xmlns="http://www.w3.org/2000/svg" d="m394.365 336-31.652-56.641-34.328 56.641z"
                                       fill="#000000" data-original="#000000"></path><path
  xmlns="http://www.w3.org/2000/svg" d="m202.576 184-44.314 79.298 44.062 72.702h107.352l44.062-72.702-44.314-79.298z"
  fill="#000000" data-original="#000000"></path><path xmlns="http://www.w3.org/2000/svg"
                                                      d="m211.517 168h88.966l-44.483-79.601z" fill="#000000"
                                                      data-original="#000000"></path><path
  xmlns="http://www.w3.org/2000/svg" d="m103.626 168h89.562l48.868-87.448c-59.142 4.657-110.154 38.677-138.43 87.448z"
  fill="#000000" data-original="#000000"></path><path xmlns="http://www.w3.org/2000/svg"
                                                      d="m110.203 184 38.524 63.563 35.52-63.563z" fill="#000000"
                                                      data-original="#000000"></path><path
  xmlns="http://www.w3.org/2000/svg" d="m183.615 336-34.328-56.641-31.652 56.641z" fill="#000000"
  data-original="#000000"></path><circle xmlns="http://www.w3.org/2000/svg" cx="256" cy="48" r="16" fill="#000000"
                                         data-original="#000000"></circle><path xmlns="http://www.w3.org/2000/svg"
                                                                                d="m241.428 431.392-48.116-79.392h-84.751c28.94 44.297 77.281 74.814 132.867 79.392z"
                                                                                fill="#000000"
                                                                                data-original="#000000"></path><path
  xmlns="http://www.w3.org/2000/svg"
  d="m284.681 33.83c2.121 4.274 3.319 9.084 3.319 14.17 0 6.602-2.01 12.743-5.45 17.844 84.667 11.764 151.842 78.939 163.606 163.606 5.101-3.44 11.242-5.45 17.844-5.45 5.086 0 9.896 1.198 14.17 3.319-12.917-100.626-92.863-180.571-193.489-193.489z"
  fill="#000000" data-original="#000000"></path><circle xmlns="http://www.w3.org/2000/svg" cx="464" cy="256" r="16"
                                                        fill="#000000" data-original="#000000"></circle><path
  xmlns="http://www.w3.org/2000/svg"
  d="m269.943 80.552 48.868 87.448h89.562c-28.275-48.771-79.287-82.791-138.43-87.448z" fill="#000000"
  data-original="#000000"></path><path xmlns="http://www.w3.org/2000/svg"
                                       d="m446.156 282.55c-11.764 84.667-78.939 151.842-163.606 163.606 3.44 5.101 5.45 11.242 5.45 17.844 0 5.086-1.198 9.896-3.319 14.17 100.626-12.918 180.571-92.863 193.489-193.489-4.274 2.12-9.084 3.319-14.17 3.319-6.602 0-12.743-2.01-17.844-5.45z"
                                       fill="#000000" data-original="#000000"></path><path
  xmlns="http://www.w3.org/2000/svg" d="m403.439 352h-84.751l-48.117 79.392c55.587-4.578 103.928-35.095 132.868-79.392z"
  fill="#000000" data-original="#000000"></path><path xmlns="http://www.w3.org/2000/svg"
                                                      d="m299.979 352h-87.958l43.979 72.565z" fill="#000000"
                                                      data-original="#000000"></path><path
  xmlns="http://www.w3.org/2000/svg"
  d="m432 256c0-24.186-4.906-47.246-13.771-68.242l-45.98 75.867 40.472 72.423c12.322-24.027 19.279-51.24 19.279-80.048z"
  fill="#000000" data-original="#000000"></path><path xmlns="http://www.w3.org/2000/svg"
                                                      d="m65.844 282.55c-5.101 3.44-11.242 5.45-17.844 5.45-5.086 0-9.896-1.198-14.17-3.319 12.918 100.626 92.863 180.571 193.489 193.489-2.12-4.274-3.319-9.084-3.319-14.17 0-6.602 2.01-12.743 5.45-17.844-84.667-11.764-151.842-78.939-163.606-163.606z"
                                                      fill="#000000" data-original="#000000"></path><path
  xmlns="http://www.w3.org/2000/svg"
  d="m65.844 229.45c11.764-84.667 78.939-151.842 163.606-163.606-3.44-5.101-5.45-11.242-5.45-17.844 0-5.086 1.198-9.896 3.319-14.17-100.626 12.918-180.572 92.863-193.489 193.489 4.274-2.121 9.084-3.319 14.17-3.319 6.602 0 12.743 2.01 17.844 5.45z"
  fill="#000000" data-original="#000000"></path><circle xmlns="http://www.w3.org/2000/svg" cx="256" cy="464" r="16"
                                                        fill="#000000" data-original="#000000"></circle><circle
  xmlns="http://www.w3.org/2000/svg" cx="48" cy="256" r="16" fill="#000000" data-original="#000000"></circle></g></svg>
