<svg xmlns="http://www.w3.org/2000/svg" version="1.1" xmlns:xlink="http://www.w3.org/1999/xlink"
     xmlns:svgjs="http://svgjs.com/svgjs" width="512" height="512" x="0" y="0" viewBox="0 0 32 32"
     style="enable-background:new 0 0 512 512" xml:space="preserve" class=""><g><g xmlns="http://www.w3.org/2000/svg" id="shield"><path d="m24.46 8.31a9.7162 9.7162 0 0 1 -1.17-1.68h-14.58a9.7162 9.7162 0 0 1 -1.17 1.68 10.539 10.539 0 0 1 -.96.93 25.6735 25.6735 0 0 0 7.11 13.4 22.121 22.121 0 0 0 2.31 1.89 21.1277 21.1277 0 0 0 2.31-1.89 25.6735 25.6735 0 0 0 7.11-13.4 10.539 10.539 0 0 1 -.96-.93zm-3.75 3.51-4.64 4.64a1.0243 1.0243 0 0 1 -.71.29 1.0424 1.0424 0 0 1 -.71-.29l-2.32-2.32a1.0041 1.0041 0 1 1 1.42-1.42l1.61 1.62 3.93-3.94a1.0041 1.0041 0 1 1 1.42 1.42z" fill="#000000" data-original="#000000"></path><path
  d="m31.75 5.62a1.0156 1.0156 0 0 0 -.75-.34 2.692 2.692 0 0 1 -2.04-.94 3.29 3.29 0 0 1 -.77-2.59.9685.9685 0 0 0 -.24-.78.9806.9806 0 0 0 -.75-.34h-22.4a.9961.9961 0 0 0 -.75.34.9685.9685 0 0 0 -.24.78 3.29 3.29 0 0 1 -.77 2.59 2.692 2.692 0 0 1 -2.04.94 1.0156 1.0156 0 0 0 -.75.34.9794.9794 0 0 0 -.24.79c.74 5.96 3 14.37 9.55 20.58a26.6833 26.6833 0 0 0 5.98 4.27 1.0168 1.0168 0 0 0 .92 0 26.6833 26.6833 0 0 0 5.98-4.27c6.55-6.21 8.81-14.62 9.55-20.58a.9794.9794 0 0 0 -.24-.79zm-4.24 3.42c-1.3 6.29-3.93 11.36-7.82 15.05a22.8281 22.8281 0 0 1 -3.14 2.48.9747.9747 0 0 1 -1.1 0 23.4462 23.4462 0 0 1 -3.14-2.48c-3.89-3.69-6.52-8.76-7.82-15.05a1.01 1.01 0 0 1 .4-1.02 7.069 7.069 0 0 0 1.15-1.04 7.1457 7.1457 0 0 0 1.14-1.77 1.0054 1.0054 0 0 1 .91-.58h15.82a1.0054 1.0054 0 0 1 .91.58 7.1457 7.1457 0 0 0 1.14 1.77 7.069 7.069 0 0 0 1.15 1.04 1.01 1.01 0 0 1 .4 1.02z"
  fill="#000000" data-original="#000000"></path></g></g></svg>
