<svg xmlns="http://www.w3.org/2000/svg" version="1.1" xmlns:xlink="http://www.w3.org/1999/xlink"
     xmlns:svgjs="http://svgjs.com/svgjs" width="512" height="512" x="0" y="0" viewBox="0 0 512.001 512.001"
     style="enable-background:new 0 0 512 512" xml:space="preserve" class=""><g>
<g xmlns="http://www.w3.org/2000/svg">
	<g>
		<path
      d="M216.282,85.511c-12.627-16.728-30.527-25.737-51.797-26.073c-42.012-1.187-77.461,15.703-100.869,46.054    C41.497,134.13,21.584,188.549,48.479,285.14c1.809,6.502,12.807,45.331,13.731,50.268c1.26,6.636,7.061,11.44,13.799,11.44    h121.523c6.768,0,12.568-4.819,13.799-11.455c0.167-0.863,11.572-39.655,13.564-47.104    C238.928,235.804,252.932,134.026,216.282,85.511z"
      fill="#000000" data-original="#000000" class=""></path>
	</g>
</g>
<g xmlns="http://www.w3.org/2000/svg">
	<g>
		<path
      d="M196.008,377.001h-120c-8.291,0-14.4,6.709-14.4,15v45c0,41.353,33.033,75,74.4,75s75.4-33.647,75.4-75v-45    C211.408,383.71,204.299,377.001,196.008,377.001z"
      fill="#000000" data-original="#000000" class=""></path>
	</g>
</g>
<g xmlns="http://www.w3.org/2000/svg">
	<g>
		<path
      d="M447.288,50.563c-23.789-31.479-61.26-49.907-102.803-50.552c-20.215-0.352-39.082,8.027-51.533,24.155    c-34.812,45.098-19.786,149.404-5.273,201.548c1.809,6.502,13.607,43.731,14.531,48.668c1.26,6.636,7.061,11.44,13.799,11.44    h121.523c6.768,0,12.568-4.819,13.799-11.455c0.167-0.863,11.572-38.055,13.564-45.504    C490.208,134.308,469.29,79.714,447.288,50.563z"
      fill="#000000" data-original="#000000" class=""></path>
	</g>
</g>
<g xmlns="http://www.w3.org/2000/svg">
	<g>
		<path
      d="M436.008,318.175h-120c-8.291,0-14.4,6.109-14.4,14.4v45c0,41.353,33.033,75,74.4,75s75.4-33.647,75.4-75v-45    C451.408,324.284,444.299,318.175,436.008,318.175z"
      fill="#000000" data-original="#000000" class=""></path>
	</g>
</g>
<g xmlns="http://www.w3.org/2000/svg">
</g>
<g xmlns="http://www.w3.org/2000/svg">
</g>
<g xmlns="http://www.w3.org/2000/svg">
</g>
<g xmlns="http://www.w3.org/2000/svg">
</g>
<g xmlns="http://www.w3.org/2000/svg">
</g>
<g xmlns="http://www.w3.org/2000/svg">
</g>
<g xmlns="http://www.w3.org/2000/svg">
</g>
<g xmlns="http://www.w3.org/2000/svg">
</g>
<g xmlns="http://www.w3.org/2000/svg">
</g>
<g xmlns="http://www.w3.org/2000/svg">
</g>
<g xmlns="http://www.w3.org/2000/svg">
</g>
<g xmlns="http://www.w3.org/2000/svg">
</g>
<g xmlns="http://www.w3.org/2000/svg">
</g>
<g xmlns="http://www.w3.org/2000/svg">
</g>
<g xmlns="http://www.w3.org/2000/svg">
</g>
</g></svg>
