<svg xmlns="http://www.w3.org/2000/svg" version="1.1" xmlns:xlink="http://www.w3.org/1999/xlink"
     xmlns:svgjs="http://svgjs.com/svgjs" width="512" height="512" x="0" y="0" viewBox="0 0 68 68"
     style="enable-background:new 0 0 512 512" xml:space="preserve" class=""><g><g xmlns="http://www.w3.org/2000/svg"><path d="m64.13152 44.01507c-1.39844-.97461-3.05079-1.33496-4.50879-1.65234-.53906-.12402-1.07227.22461-1.18945.76367-.11816.53906.22363 1.07227.76367 1.18945 1.33691.29199 2.71973.59375 3.79199 1.33984.82813.57715 1.61329 1.68457 1.37793 2.75293-.33789 1.53613-2.53614 2.21875-3.81739 2.48926-4.50879.95313-9.2627.91016-13.85547.87207-2.65723-.02246-5.40625-.0459-8.11133.11816-2 .12207-4.08984.38965-5.81836 1.51074-1.78418 1.15625-3.21972 3.63281-2.36621 5.94629.16504.44629.3916.83008.61133 1.20215.28027.47656.52246.8877.53516 1.2666.0166.50684-.41602 1-.85156 1.26367-.59766.36133-1.36621.50781-2.16895.63965-8.00983 1.31348-16.92712 1.53613-24.64526.63098.37848-1.95868 1.08679-4.09418 2.14734-6.48566 1.67352-.03796 3.5152-.25623 5.4967-.66339 5.78998-1.15997 11.58997-3.76001 16.76001-7.52002 1.88995-1.35999 3.73999-2.78998 5.5-4.25995.15997-.13.21997-.35004.15997-.55005-.07001-.19-.25-.32996-.46002-.33997-1.73999-.06-4.15997-.41003-6.63-1.54004 2.82001.05005 7.83002-.25 12.27002-2.33997.04999-.02002.09003-.04999.13-.09003 3.06-2.90997 5.90997-6.01001 8.47998-9.20996.12-.14001.14001-.35004.06-.52002-.07996-.16998-.25-.28998-.44-.28998-1.59998-.02002-4.50995-.30005-7.46997-1.78003 2.70001-.19 7.98999-.72998 11.27002-2.07001.08997-.02997.15997-.08997.21997-.16998 3.35999-4.79999 6.13-9.77002 8.25-14.77002.06-.13995.04999-.29999-.02002-.44-.07996-.13-.19995-.21997-.34998-.25-1.73999-.32001-3.48999-.37-4.78998-.32996 2.19995-1.12 4.33997-1.49005 5.88995-1.59003.19-.02002.36005-.14001.43005-.33002 1.37-3.67999 1.81-5.88995 1.81995-5.97998.05005-.23999-.07996-.46997-.29999-.56-.27997-.10999-6.95996-2.72003-17.38.25-.09998.02997-.17999.08002-.23999.15997-2.02997 2.37-3.46997 5.52002-4.27002 7.57001-.08997-1.79999.08002-3.65997.51001-5.52997.04999-.17999-.01996-.37-.15997-.48999s-.34003-.15002-.51001-.08002c-3.78003 1.57001-7.54999 3.72998-11.21002 6.41998-.06.04004-.09998.10004-.13995.16003-1.73004 3.06-2.26001 7.31995-2.42004 9.88995-.69995-1.85999-1.10999-3.87-1.22998-6-.01001-.19-.13-.35999-.29999-.42999-.17999-.07996-.38-.03998-.53003.08002-2.16998 1.89002-4.38 4.04999-6.57996 6.40997-.03003.03003-.05005.06-.07001.10004-1.75 3.06-2.27002 7.35999-2.42999 9.92999-.54004-1.42999-.91003-2.96002-1.11005-4.56-.01996-.20001-.15997-.37-.34998-.41998-.20001-.05005-.40002.00995-.53003.15997-2.46997 3.04999-4.92999 6.40002-7.31 9.98999-2.32996 3.48004-3.79999 7.26001-4.26996 10.91998-.52002 4.05005.15997 6.85004.92999 8.59003 13.45001-29.13 36.69-37.73999 36.91998-37.82001.52002-.19 1.09003.08002 1.28003.60004.19.51996-.08002 1.08997-.60004 1.27997-.22998.08002-22.75 8.46002-35.82001 36.85999-.17999.40002-.34998.80005-.5 1.17999.00568.00616.01068.01154.01617.01746-1.20551 2.79706-1.94873 5.27808-2.26788 7.56805-.07617.54688.30469 1.05176.85254 1.12793.00232.00037.00458.00043.0069.00073l-.00004.00029c3.49316.46289 7.25098.69238 11.08105.69238 5.08496 0 10.29688-.40527 15.17578-1.20508.96289-.15723 1.97754-.35645 2.88086-.90234 1.1582-.70117 1.85351-1.86621 1.81445-3.04004-.02832-.88965-.44434-1.59473-.81055-2.2168-.18262-.30957-.35449-.60156-.45703-.87988-.47656-1.28906.42773-2.83008 1.57715-3.5752 1.4082-.91211 3.24316-1.09375 4.85254-1.19238 2.63574-.16016 5.34863-.13672 7.97266-.11426 4.70117.04004 9.56445.08203 14.28516-.91504 3.06934-.64746 4.92188-2.03711 5.35743-4.0166.43554-1.97655-.78516-3.84667-2.18848-4.82323z" fill="#000000" data-original="#000000" class=""></path></g></g></svg>
