<svg xmlns="http://www.w3.org/2000/svg" version="1.1" xmlns:xlink="http://www.w3.org/1999/xlink" xmlns:svgjs="http://svgjs.com/svgjs" width="512" height="512" x="0" y="0" viewBox="0 0 512 512" style="enable-background:new 0 0 512 512" xml:space="preserve" class=""><g>
<g xmlns="http://www.w3.org/2000/svg">
	<g>
		<ellipse cx="256" cy="136.533" rx="256" ry="85.333" fill="#000000" data-original="#000000" class=""></ellipse>
	</g>
</g>
<g xmlns="http://www.w3.org/2000/svg">
	<g>
		<ellipse cx="256" cy="136.533" rx="256" ry="85.333" fill="#000000" data-original="#000000" class=""></ellipse>
	</g>
</g>
<g xmlns="http://www.w3.org/2000/svg">
	<g>
		<path d="M453.21,245.446c-53.436,17.811-123.472,27.621-197.21,27.621s-143.775-9.81-197.21-27.621    C34.336,237.295,15.087,228.031,0,218.204v36.089c0,22.793,26.627,44.223,74.981,60.339    C123.332,330.75,187.619,339.627,256,339.627s132.668-8.876,181.019-24.994C485.371,298.516,512,277.086,512,254.293v-36.089    C496.913,228.031,477.664,237.293,453.21,245.446z" fill="#000000" data-original="#000000" class=""></path>
	</g>
</g>
<g xmlns="http://www.w3.org/2000/svg">
	<g>
		<path d="M453.21,363.206c-53.434,17.811-123.472,27.621-197.21,27.621s-143.776-9.81-197.21-27.622    c-24.455-8.151-43.704-17.413-58.79-27.24v39.503C0,422.595,114.615,460.8,256,460.8s256-38.205,256-85.333v-39.501    C496.915,345.791,477.665,355.055,453.21,363.206z" fill="#000000" data-original="#000000" class=""></path>
	</g>
</g>
<g xmlns="http://www.w3.org/2000/svg">
</g>
<g xmlns="http://www.w3.org/2000/svg">
</g>
<g xmlns="http://www.w3.org/2000/svg">
</g>
<g xmlns="http://www.w3.org/2000/svg">
</g>
<g xmlns="http://www.w3.org/2000/svg">
</g>
<g xmlns="http://www.w3.org/2000/svg">
</g>
<g xmlns="http://www.w3.org/2000/svg">
</g>
<g xmlns="http://www.w3.org/2000/svg">
</g>
<g xmlns="http://www.w3.org/2000/svg">
</g>
<g xmlns="http://www.w3.org/2000/svg">
</g>
<g xmlns="http://www.w3.org/2000/svg">
</g>
<g xmlns="http://www.w3.org/2000/svg">
</g>
<g xmlns="http://www.w3.org/2000/svg">
</g>
<g xmlns="http://www.w3.org/2000/svg">
</g>
<g xmlns="http://www.w3.org/2000/svg">
</g>
</g></svg>
