<svg xmlns="http://www.w3.org/2000/svg" version="1.1" xmlns:xlink="http://www.w3.org/1999/xlink"
     xmlns:svgjs="http://svgjs.com/svgjs" width="512" height="512" x="0" y="0" viewBox="0 0 512 512"
     style="enable-background:new 0 0 512 512" xml:space="preserve" class=""><g><path xmlns="http://www.w3.org/2000/svg" d="m314.371094 209h-116.941406l58.492187 168.199219zm0 0" fill="#000000" data-original="#000000"></path><path
  xmlns="http://www.w3.org/2000/svg"
  d="m164.558594 175.195312 14.59375-90.011718-100.042969-33.34375-74.800781 72.386718zm0 0" fill="#000000"
  data-original="#000000"></path><path xmlns="http://www.w3.org/2000/svg"
                                       d="m240.019531 422.730469-75.214843-215.835938-164.804688-52.492187 238.867188 271.621094zm0 0"
                                       fill="#000000" data-original="#000000"></path><path
  xmlns="http://www.w3.org/2000/svg" d="m303.21875 89h-94.34375l-14.695312 91h123.65625zm0 0" fill="#000000"
  data-original="#000000"></path><path xmlns="http://www.w3.org/2000/svg"
                                       d="m347.207031 206.898438-75.410156 215.859374 1.195313 3.429688 239.007812-271.78125zm0 0"
                                       fill="#000000" data-original="#000000"></path><path
  xmlns="http://www.w3.org/2000/svg"
  d="m198.445312 60h115.121094l92.441406-30.808594-85.261718-28.414062-124.746094-.777344-89.894531 29.222656zm0 0"
  fill="#000000" data-original="#000000"></path><path xmlns="http://www.w3.org/2000/svg"
                                                      d="m347.453125 175.195312 160.242187-50.96875-74.800781-72.378906-100.042969 33.347656zm0 0"
                                                      fill="#000000" data-original="#000000"></path></g></svg>
