<svg xmlns="http://www.w3.org/2000/svg" version="1.1" xmlns:xlink="http://www.w3.org/1999/xlink"
     xmlns:svgjs="http://svgjs.com/svgjs" width="512" height="512" x="0" y="0" viewBox="0 0 512 512"
     style="enable-background:new 0 0 512 512" xml:space="preserve" class=""><g>
<g xmlns="http://www.w3.org/2000/svg">
	<g>
		<ellipse cx="256" cy="221.867" rx="196.267" ry="110.933" fill="#000000" data-original="#000000" class=""></ellipse>
	</g>
</g>
<g xmlns="http://www.w3.org/2000/svg">
	<g>
		<path
      d="M256,51.2C114.842,51.2,0,127.761,0,221.867v68.267c0,4.207,0.307,8.371,0.759,12.51c0.119,1.092,0.222,2.185,0.375,3.277    c0.503,3.669,1.161,7.313,2.014,10.914c0.401,1.741,0.905,3.456,1.391,5.18c0.538,1.894,1.135,3.78,1.766,5.658    c1.348,4.053,2.935,8.047,4.727,12.006c0.23,0.503,0.435,1.007,0.674,1.51c9.071,19.439,23.219,37.726,42.487,54.153    l14.063,11.989v-1.323c12.809,9.216,27.119,17.485,42.667,24.644v0.29l5.137,2.227c2.065,0.896,4.241,1.63,6.332,2.483    c1.715,0.7,3.465,1.365,5.205,2.039c4.966,1.92,9.984,3.755,15.113,5.436c3.081,1.015,6.204,1.98,9.353,2.918    c3.738,1.101,7.492,2.159,11.307,3.149c4.531,1.178,9.105,2.278,13.756,3.285c2.21,0.478,4.429,0.93,6.665,1.365    c5.956,1.169,11.998,2.21,18.125,3.089c0.58,0.085,1.135,0.213,1.715,0.29l9.702,1.34v-0.179    c13.884,1.562,28.126,2.415,42.667,2.415c14.541,0,28.783-0.853,42.667-2.415v0.179l9.702-1.34c0.58-0.077,1.135-0.213,1.715-0.29    c6.127-0.879,12.169-1.92,18.125-3.089c2.236-0.435,4.454-0.896,6.664-1.365c4.642-1.007,9.225-2.108,13.756-3.285    c3.814-0.981,7.578-2.048,11.315-3.149c3.149-0.939,6.263-1.894,9.335-2.918c5.129-1.69,10.155-3.516,15.121-5.436    c1.741-0.674,3.49-1.34,5.205-2.039c2.091-0.853,4.267-1.587,6.332-2.483l5.137-2.227v-0.29    c15.556-7.159,29.858-15.428,42.667-24.644v1.323l14.071-11.989c19.277-16.427,33.425-34.722,42.487-54.161    c0.23-0.495,0.435-0.99,0.666-1.485c1.792-3.959,3.379-7.962,4.727-12.023c0.631-1.877,1.229-3.763,1.775-5.658    c0.478-1.724,0.99-3.447,1.391-5.18c0.853-3.601,1.51-7.245,2.014-10.914c0.145-1.092,0.256-2.185,0.367-3.277    c0.452-4.139,0.759-8.294,0.759-12.51v-68.267C512,127.761,397.158,51.2,256,51.2z M51.209,369.015    c-8.329-8.858-15.172-18.159-20.497-27.785c-0.145-0.273-0.273-0.538-0.418-0.794c-1.459-2.688-2.773-5.41-4.002-8.141    c-0.29-0.649-0.589-1.306-0.87-1.954c-1.28-3.021-2.458-6.067-3.439-9.139c-0.009-0.017-0.009-0.034-0.017-0.051    c-0.973-3.021-1.749-6.084-2.432-9.148c-0.205-0.922-0.367-1.843-0.546-2.773c-0.435-2.27-0.802-4.557-1.084-6.844    c-0.111-0.939-0.239-1.869-0.333-2.807c-0.299-3.123-0.495-6.263-0.495-9.421v-6.554c8.397,14.473,19.823,28.203,34.133,40.883    V369.015z M110.95,412.066c-15.932-7.842-30.268-16.947-42.675-27.085v-47.24c3.379,2.423,6.869,4.779,10.445,7.066    c0.947,0.606,1.894,1.22,2.859,1.818c4.045,2.509,8.175,4.958,12.45,7.287c0.614,0.341,1.254,0.657,1.886,0.99    c3.874,2.074,7.834,4.062,11.887,5.99c1.024,0.486,2.031,0.981,3.063,1.451c0.026,0.017,0.06,0.026,0.085,0.043V412.066z     M196.275,438.861c-5.811-0.964-11.537-2.091-17.195-3.336c-0.401-0.085-0.811-0.171-1.212-0.265    c-17.451-3.9-34.133-9.097-49.869-15.573v-49.903c12.416,4.779,25.404,8.738,38.775,12.041c1.425,0.358,2.867,0.683,4.309,1.024    c4.053,0.947,8.124,1.835,12.254,2.645c3.473,0.683,6.955,1.34,10.487,1.929c0.828,0.136,1.621,0.316,2.449,0.452V438.861z     M298.675,441.242c-13.858,1.613-28.1,2.5-42.667,2.5s-28.809-0.888-42.667-2.5v-51.115c0.452,0.051,0.896,0.111,1.348,0.162    c0.58,0.06,1.152,0.145,1.741,0.205c5.734,0.597,11.546,1.024,17.391,1.365c1.399,0.077,2.799,0.145,4.198,0.213    c5.948,0.273,11.938,0.469,17.988,0.469c6.05,0,12.041-0.188,17.988-0.469c1.408-0.068,2.807-0.137,4.198-0.213    c5.854-0.341,11.656-0.768,17.391-1.365c0.58-0.06,1.161-0.145,1.741-0.205c0.452-0.051,0.896-0.111,1.348-0.162V441.242z     M384.009,419.695L384.009,419.695c-15.727,6.477-32.418,11.674-49.86,15.573c-0.401,0.094-0.811,0.179-1.212,0.265    c-5.658,1.246-11.383,2.364-17.195,3.337v-50.987c0.828-0.128,1.621-0.316,2.449-0.452c3.533-0.589,7.014-1.246,10.487-1.929    c4.122-0.811,8.201-1.698,12.254-2.645c1.434-0.341,2.876-0.666,4.301-1.024c13.372-3.302,26.359-7.262,38.776-12.041V419.695z     M443.75,384.99c-12.424,10.129-26.752,19.234-42.675,27.085v-49.681c0.026-0.009,0.051-0.026,0.085-0.043    c1.033-0.478,2.039-0.964,3.063-1.451c4.045-1.92,8.013-3.917,11.887-5.99c0.623-0.333,1.263-0.649,1.886-0.99    c4.275-2.338,8.405-4.779,12.45-7.287c0.964-0.597,1.911-1.212,2.859-1.818c3.576-2.295,7.074-4.642,10.445-7.066V384.99z     M256.009,349.875c-115.635,0-213.333-58.615-213.333-128s97.698-128,213.333-128c115.644,0,213.333,58.615,213.333,128    S371.652,349.875,256.009,349.875z M494.942,290.142c0,3.157-0.196,6.298-0.495,9.421c-0.094,0.939-0.213,1.869-0.333,2.807    c-0.282,2.287-0.64,4.574-1.084,6.844c-0.179,0.922-0.35,1.852-0.546,2.773c-0.683,3.072-1.459,6.127-2.432,9.148    c0,0.017-0.009,0.034-0.017,0.051c-0.99,3.072-2.159,6.118-3.447,9.139c-0.273,0.657-0.572,1.306-0.87,1.954    c-1.22,2.739-2.534,5.453-4.002,8.141c-0.145,0.256-0.273,0.521-0.41,0.785c-5.325,9.626-12.169,18.927-20.497,27.785v-44.527    c14.31-12.681,25.745-26.411,34.133-40.883V290.142z"
      fill="#000000" data-original="#000000" class=""></path>
	</g>
</g>
<g xmlns="http://www.w3.org/2000/svg">
</g>
<g xmlns="http://www.w3.org/2000/svg">
</g>
<g xmlns="http://www.w3.org/2000/svg">
</g>
<g xmlns="http://www.w3.org/2000/svg">
</g>
<g xmlns="http://www.w3.org/2000/svg">
</g>
<g xmlns="http://www.w3.org/2000/svg">
</g>
<g xmlns="http://www.w3.org/2000/svg">
</g>
<g xmlns="http://www.w3.org/2000/svg">
</g>
<g xmlns="http://www.w3.org/2000/svg">
</g>
<g xmlns="http://www.w3.org/2000/svg">
</g>
<g xmlns="http://www.w3.org/2000/svg">
</g>
<g xmlns="http://www.w3.org/2000/svg">
</g>
<g xmlns="http://www.w3.org/2000/svg">
</g>
<g xmlns="http://www.w3.org/2000/svg">
</g>
<g xmlns="http://www.w3.org/2000/svg">
</g>
</g></svg>
